<?xml version="1.0" encoding="UTF-8" standalone="no"?>
<!-- Created with Inkscape (http://www.inkscape.org/) -->

<svg
   xmlns:dc="http://purl.org/dc/elements/1.1/"
   xmlns:cc="http://creativecommons.org/ns#"
   xmlns:rdf="http://www.w3.org/1999/02/22-rdf-syntax-ns#"
   xmlns:svg="http://www.w3.org/2000/svg"
   xmlns="http://www.w3.org/2000/svg"
   xmlns:sodipodi="http://sodipodi.sourceforge.net/DTD/sodipodi-0.dtd"
   xmlns:inkscape="http://www.inkscape.org/namespaces/inkscape"
   width="18"
   height="15"
   viewBox="0 0 4.7624999 3.9687501"
   version="1.1"
   id="svg5081"
   inkscape:version="0.92.1 r15371"
   sodipodi:docname="envelope_icon.svg">
  <defs
     id="defs5075" />
  <sodipodi:namedview
     id="base"
     pagecolor="#ffffff"
     bordercolor="#666666"
     borderopacity="1.0"
     inkscape:pageopacity="0.0"
     inkscape:pageshadow="2"
     inkscape:zoom="15.839192"
     inkscape:cx="14.755296"
     inkscape:cy="3.8129378"
     inkscape:document-units="px"
     inkscape:current-layer="layer1"
     showgrid="false"
     units="px"
     inkscape:pagecheckerboard="true"
     inkscape:showpageshadow="false"
     inkscape:window-width="2560"
     inkscape:window-height="1361"
     inkscape:window-x="-9"
     inkscape:window-y="-9"
     inkscape:window-maximized="1" />
  <metadata
     id="metadata5078">
    <rdf:RDF>
      <cc:Work
         rdf:about="">
        <dc:format>image/svg+xml</dc:format>
        <dc:type
           rdf:resource="http://purl.org/dc/dcmitype/StillImage" />
        <dc:title></dc:title>
      </cc:Work>
    </rdf:RDF>
  </metadata>
  <g
     inkscape:label="Layer 1"
     inkscape:groupmode="layer"
     id="layer1"
     transform="translate(0,-293.03123)">
    <path
       style="fill:#ffffff;fill-opacity:1;stroke-width:0.00851968"
       d="m 0.32717,296.98681 c -0.07263,-0.0158 -0.13478,-0.0496 -0.192382,-0.1045 -0.06102,-0.0582 -0.09765,-0.11432 -0.118648,-0.1818 C 5.5e-4,296.65041 0,296.59646 0,295.12514 c 0,-1.47131 0.0053322,-1.13114 0.00432824,-1.37161 -0.00100395,-0.24046 0.03964318,-0.28603 0.05159882,-0.31034 0.03058287,-0.0622 0.11571795,-0.1281 0.17079047,-0.15343 0.10127882,-0.0466 -0.0281735,-0.0386 2.15452847,-0.0386 2.182699,0 2.0535954,-0.003 2.153052,0.0475 0.053333,0.027 0.133034,0.10132 0.169314,0.15786 0.01463,0.0228 0.033867,0.0648 0.04274,0.0933 0.015597,0.0501 0.01614,0.10405 0.01614,1.57536 0,1.47132 -5.54e-4,1.52528 -0.01614,1.57537 -0.021,0.0675 -0.05762,0.12359 -0.118648,0.1818 -0.05886,0.0561 -0.119705,0.0886 -0.196362,0.10489 -0.08167,0.0173 -4.024543,0.0169 -4.104178,-3.8e-4 z m 4.058616,-0.34142 c 0.04678,-0.0328 0.04476,0.0239 0.0387,-1.08503 l -0.0056,-1.02279 c -0.4321995,0.38764 -0.8800681,0.71018 -1.347555,1.09514 -0.183768,0.15165 -0.256725,0.20234 -0.366999,0.25498 -0.243879,0.11642 -0.402311,0.11642 -0.64619,0 -0.11034,-0.0527 -0.183303,-0.10338 -0.366999,-0.25505 -0.4354885,-0.36274 -0.96000778,-0.74954 -1.34759,-1.09508 -0.006966,0.4897 -0.0110293,0.99888 -0.0113,1.46342 -8e-6,0.62787 -0.0011,0.61256 0.04444,0.64443 0.01707,0.012 0.219065,0.0133 2.004537,0.0133 1.785472,0 1.987466,-10e-4 2.004537,-0.0133 z m -1.85875,-1.04649 c 0.08124,-0.0386 0.186456,-0.11099 0.310016,-0.21334 0.05389,-0.0446 0.333758,-0.26781 0.621936,-0.49596 0.629909,-0.49868 0.651616,-0.51677 0.724105,-0.60348 0.158923,-0.1901 0.192836,-0.35203 0.243245,-0.51301 0.04063,-0.12973 -0.02585,-0.15221 -0.07218,-0.16581 -0.02058,-0.0152 -0.0553,-0.0158 -1.974909,-0.0157 l -1.987081,3e-5 c -0.07258,0 -0.05477,0.0812 -0.05366,0.12306 0.006,0.22165 0.09456,0.42559 0.259431,0.59756 0.04816,0.0502 0.256407,0.22096 0.650189,0.53304 0.318636,0.25252 0.623427,0.49566 0.677314,0.5403 0.160651,0.13308 0.299939,0.22151 0.381291,0.24207 0.01755,0.004 0.06003,0.007 0.09441,0.005 0.04945,-0.003 0.07573,-0.01 0.125894,-0.0334 z"
       id="path5637"
       inkscape:connector-curvature="0"
       sodipodi:nodetypes="cscszsssssssccccccsccccccccscccssscssssssccccc" />
  </g>
</svg>
