<?xml version="1.0" encoding="UTF-8" standalone="no"?>
<!-- Created with Inkscape (http://www.inkscape.org/) -->

<svg
   xmlns:dc="http://purl.org/dc/elements/1.1/"
   xmlns:cc="http://creativecommons.org/ns#"
   xmlns:rdf="http://www.w3.org/1999/02/22-rdf-syntax-ns#"
   xmlns:svg="http://www.w3.org/2000/svg"
   xmlns="http://www.w3.org/2000/svg"
   xmlns:sodipodi="http://sodipodi.sourceforge.net/DTD/sodipodi-0.dtd"
   xmlns:inkscape="http://www.inkscape.org/namespaces/inkscape"
   width="10"
   height="14"
   viewBox="0 0 2.6458332 3.7041668"
   version="1.1"
   id="svg8"
   inkscape:version="0.92.1 r15371"
   sodipodi:docname="nfc_icon.svg">
  <defs
     id="defs2" />
  <sodipodi:namedview
     id="base"
     pagecolor="#ffffff"
     bordercolor="#666666"
     borderopacity="1.0"
     inkscape:pageopacity="0.0"
     inkscape:pageshadow="2"
     inkscape:zoom="31.678384"
     inkscape:cx="1.0226673"
     inkscape:cy="6.5568817"
     inkscape:document-units="px"
     inkscape:current-layer="layer1"
     showgrid="false"
     units="px"
     inkscape:pagecheckerboard="true"
     inkscape:showpageshadow="false"
     inkscape:window-width="2560"
     inkscape:window-height="1361"
     inkscape:window-x="-9"
     inkscape:window-y="-9"
     inkscape:window-maximized="1" />
  <metadata
     id="metadata5">
    <rdf:RDF>
      <cc:Work
         rdf:about="">
        <dc:format>image/svg+xml</dc:format>
        <dc:type
           rdf:resource="http://purl.org/dc/dcmitype/StillImage" />
        <dc:title></dc:title>
      </cc:Work>
    </rdf:RDF>
  </metadata>
  <g
     inkscape:label="Layer 1"
     inkscape:groupmode="layer"
     id="layer1"
     transform="translate(0,-293.29582)">
    <path
       style="fill:#fcfcfc;fill-opacity:1;stroke-width:0.00597585"
       d="m 1.2416606,296.72436 c -0.04512,-0.0148 -0.09227,-0.0464 -0.120061,-0.0803 -0.01503,-0.0183 -0.14493902,-0.28739 -0.40779202,-0.84454 -0.21215,-0.44969 -0.392022,-0.83414 -0.399714,-0.85434 -0.04002,-0.10507 -0.05321,-0.20501 -0.04865,-0.36862 0.0037,-0.13386 0.01345,-0.19337 0.04944,-0.30279 0.09828,-0.29874 0.360514,-0.56315 0.659971,-0.66545 0.21578402,-0.0737 0.46435692,-0.0749 0.68508192,-0.003 0.315389,0.10236 0.588986,0.383 0.681067,0.69859 0.03088,0.10584 0.04016,0.17819 0.04024,0.31374 9e-5,0.14295 -0.0087,0.20818 -0.04062,0.30178 -0.02258,0.0662 -0.772126,1.66177 -0.801464,1.7061 -0.02329,0.0352 -0.06443,0.068 -0.113648,0.0907 -0.04752,0.0219 -0.131068,0.0257 -0.1838499,0.008 z m 0.2141989,-1.59577 c 0.09298,-0.0241 0.176338,-0.073 0.246364,-0.14454 0.111968,-0.11433 0.157261,-0.23616 0.149174,-0.40127 -0.004,-0.0814 -0.01383,-0.12448 -0.04277,-0.18723 -0.106373,-0.23065 -0.349344,-0.35302 -0.5987389,-0.30155 -0.122627,0.0253 -0.23639802,0.0995 -0.31703702,0.20666 -0.09259,0.12308 -0.122886,0.28088 -0.08515,0.44347 0.04648,0.20025 0.22470102,0.3631 0.43325602,0.39588 0.054,0.008 0.1598359,0.003 0.2148979,-0.0114 z"
       id="path4507"
       inkscape:connector-curvature="0" />
  </g>
</svg>
