<?xml version="1.0" encoding="UTF-8" standalone="no"?>
<!-- Generator: Adobe Illustrator 18.1.0, SVG Export Plug-In . SVG Version: 6.00 Build 0)  -->

<svg
   xmlns:dc="http://purl.org/dc/elements/1.1/"
   xmlns:cc="http://creativecommons.org/ns#"
   xmlns:rdf="http://www.w3.org/1999/02/22-rdf-syntax-ns#"
   xmlns:svg="http://www.w3.org/2000/svg"
   xmlns="http://www.w3.org/2000/svg"
   xmlns:sodipodi="http://sodipodi.sourceforge.net/DTD/sodipodi-0.dtd"
   xmlns:inkscape="http://www.inkscape.org/namespaces/inkscape"
   version="1.1"
   x="0px"
   y="0px"
   viewBox="0 0 100 100"
   enable-background="new 0 0 90 90"
   xml:space="preserve"
   id="svg206"
   sodipodi:docname="girl_icon.svg"
   inkscape:version="0.92.1 r15371"
   width="100"
   height="100"><metadata
     id="metadata212"><rdf:RDF><cc:Work
         rdf:about=""><dc:format>image/svg+xml</dc:format><dc:type
           rdf:resource="http://purl.org/dc/dcmitype/StillImage" /><dc:title></dc:title></cc:Work></rdf:RDF></metadata><defs
     id="defs210" /><sodipodi:namedview
     pagecolor="#ffffff"
     bordercolor="#666666"
     borderopacity="1"
     objecttolerance="10"
     gridtolerance="10"
     guidetolerance="10"
     inkscape:pageopacity="0"
     inkscape:pageshadow="2"
     inkscape:window-width="2299"
     inkscape:window-height="1336"
     id="namedview208"
     showgrid="false"
     inkscape:zoom="5.2444445"
     inkscape:cx="88.859193"
     inkscape:cy="36.997187"
     inkscape:window-x="55"
     inkscape:window-y="66"
     inkscape:window-maximized="0"
     inkscape:current-layer="SR"
     showguides="true"
     inkscape:guide-bbox="true"><sodipodi:guide
       position="50,50"
       orientation="0,1"
       id="guide4812"
       inkscape:locked="false"
       inkscape:label=""
       inkscape:color="rgb(0,0,255)" /><sodipodi:guide
       position="50,112.5"
       orientation="1,0"
       id="guide4814"
       inkscape:locked="false"
       inkscape:label=""
       inkscape:color="rgb(0,0,255)" /></sodipodi:namedview><g
     id="SR"
     transform="translate(0,10)"><g
       id="g26"
       transform="translate(-0.23888118,-0.1398303)"><g
         id="g4810"
         transform="matrix(1.0526316,0,0,1.0526316,2.8702493,-7.2285925)"><g
           id="g4"><path
             sodipodi:nodetypes="scccccsscccccssscs"
             inkscape:connector-curvature="0"
             id="path2"
             d="m 67.6,60.8 c -0.5,0 -1,-0.1 -1.4,-0.3 -2.4,-1.1 -5.388758,-2.167415 -8.088758,-2.867415 L 60.4,51.2 c 1.9,0.5 3.8,1.2 5.7,1.9 1.5,-3.7 2.3,-7.7 2.3,-11.9 C 68.3,26 57.8,13.7 45,13.7 32.2,13.7 21.7,26 21.7,41.2 c 0,4.1 0.8,8.2 2.3,11.9 1.8,-0.7 3.7,-1.3 5.7,-1.9 l 2.288758,6.272475 C 29.288758,58.172475 26.3,59.4 23.9,60.5 22.3,61.3 20.3,60.6 19.5,59.1 16.5,53.7 15,47.5 15,41.2 15,22.3 28.4,7 45,7 c 16.6,0 30,15.3 30,34.2 0,6.3 -1.5,12.5 -4.4,17.9 -0.6,1.1 -1.8,1.7 -3,1.7 z" /></g><g
           id="g8"><path
             sodipodi:nodetypes="cccssccsccccccccssccccccccccccscsscccscczc"
             inkscape:connector-curvature="0"
             id="path6"
             d="m 43.3,64.6 c -8.9,-1 -15.6,-9.4 -18.4,-23 -0.3,-1.3 -0.4,-2.6 -0.5,-4.2 0,-0.5 0.1,-0.9 0.5,-1.3 0.3,-0.3 0.8,-0.5 1.2,-0.5 h 9.2 l 1.5,-10.8 c 0.1,-0.8 0.8,-1.4 1.7,-1.4 0.8,0 1.5,0.6 1.7,1.4 l 1.5,10.8 H 44 l 0.5,-5.1 C 44.6,29.6 45.3,29 46.2,29 v 0 c 0.9,0 1.6,0.7 1.7,1.5 l 0.5,5.1 h 15.5 c 0.5,0 0.9,0.2 1.2,0.5 0.3,0.3 0.5,0.8 0.5,1.3 -0.1,1.5 -0.2,2.9 -0.5,4.2 C 63.6,49 61,54.8 57.4,58.8 v 0 c -1.551866,1.813025 -1.914318,2.071304 -4,3.4 -0.661939,0.436393 -1.267763,0.716888 -1.9,1.1 -3.168735,1.217099 -4.207468,1.487887 -8.2,1.3 z m 11.6,-8.1 v 0 0 C 58,53 60.4,47.7 61.8,41 61.9,40.4 62,39.8 62.1,39.1 H 46.9 c -0.2,0 -0.5,0 -0.7,-0.1 -0.2,0.1 -0.4,0.1 -0.7,0.1 h -5.3 c -0.8,0 -1.5,-0.6 -1.7,-1.5 v -0.3 0.3 c -0.1,0.8 -0.8,1.5 -1.7,1.5 h -8.9 c 0.1,0.7 0.2,1.3 0.3,1.9 2.5,12.1 9.021593,20.294869 15.4,20.3 6.378407,0.0051 8.109011,-1.609011 11.3,-4.8 z" /></g><g
           id="g18"><g
             id="g12"><path
               inkscape:connector-curvature="0"
               id="path10"
               d="M 21,83 H 14.3 C 14.3,70.5 25.1,60.3 38.5,60.3 V 67 C 28.8,67 21,74.2 21,83 Z" /></g><g
             id="g16"><path
               inkscape:connector-curvature="0"
               id="path14"
               d="M 75.7,83 H 69 C 69,74.2 61.2,67 51.5,67 v -6.7 c 13.4,0 24.2,10.2 24.2,22.7 z" /></g></g><g
           id="g24"><path
             inkscape:connector-curvature="0"
             id="path20"
             d="m 37.9,41.6 c -1.1,0 -2,0.9 -2,2 0,1.1 0.9,2 2,2 1.1,0 2,-0.9 2,-2 0,-1.1 -0.9,-2 -2,-2 z" /><path
             inkscape:connector-curvature="0"
             id="path22"
             d="m 52.1,41.6 c -1.1,0 -2,0.9 -2,2 0,1.1 0.9,2 2,2 1.1,0 2,-0.9 2,-2 0,-1.1 -0.9,-2 -2,-2 z" /></g></g></g></g><g
     id="MCA"
     display="none"
     style="display:none"
     transform="translate(0,10)"><g
       display="inline"
       id="g41"
       style="display:inline"><g
         id="g31"><path
           d="m 75.7,84.1 c -0.6,0 -1.2,-0.1 -1.8,-0.4 -4.3,-2 -9.8,-4.7 -14.8,-7.6 -1.5,-0.9 -4,-4 -3.4,-6.8 L 57,63.6 C 56.8,63.4 56.4,63.1 55.7,63 52.3,62.5 48.8,62.2 45.1,62.2 c -3.6,0 -7.2,0.3 -10.5,0.8 -0.7,0.1 -1.1,0.4 -1.3,0.6 l 1.3,5.7 c 0.6,2.8 -2.1,5.9 -3.3,6.6 -5.9,3.8 -9.8,5.7 -15.2,7.8 L 15.3,84 H 14.4 C 12.1,84 8.9,82.3 7.8,79.9 5.7,75.2 4.7,70.3 4.7,65.2 4.7,63.8 4.8,62.3 5,60.8 L 5.1,59.7 5.9,59 c 9.3,-9.8 23.5,-15.4 39,-15.4 h 0.4 c 15.6,0.1 29.6,5.7 38.9,15.4 l 0.8,0.8 0.1,1.1 c 0.2,1.5 0.3,2.9 0.3,4.4 0,5.1 -1,10 -3.1,14.7 -1.2,2.4 -4.4,4.1 -6.6,4.1 z M 13.9,77 c 0.1,0.1 0.3,0.2 0.4,0.2 4.5,-1.8 8,-3.6 13.2,-6.9 0,0 0.1,-0.1 0.2,-0.3 l -1.2,-5.2 c -0.4,-1.6 0,-3.3 1,-4.8 1.3,-1.9 3.4,-3.2 6,-3.6 3.6,-0.6 7.5,-0.9 11.5,-0.9 4.1,0 8,0.3 11.6,0.9 2.5,0.4 4.7,1.7 6,3.6 1,1.5 1.3,3.2 0.9,4.8 L 62.3,70 c 0.1,0.2 0.2,0.3 0.3,0.4 4.2,2.4 9.1,4.8 13.1,6.7 0.1,-0.1 0.2,-0.1 0.3,-0.2 1.6,-3.7 2.4,-7.7 2.4,-11.8 0,-0.8 0,-1.6 -0.1,-2.4 C 70.3,54.8 57.9,50.2 45,50.2 h -0.5 c -12.8,0 -25.1,4.7 -33.1,12.5 -0.1,0.8 -0.1,1.6 -0.1,2.5 0.1,4.1 1,8.1 2.6,11.8 z"
           id="path29"
           inkscape:connector-curvature="0" /></g><g
         id="g35"><path
           d="m 79.7,31 c -1.9,0 -3.4,-1.5 -3.4,-3.4 v -15 h -15 c -1.9,0 -3.4,-1.5 -3.4,-3.4 0,-1.9 1.5,-3.4 3.4,-3.4 v 0 h 18.4 c 1.9,0 3.4,1.5 3.4,3.4 V 27.6 C 83,29.5 81.5,31 79.7,31 Z"
           id="path33"
           inkscape:connector-curvature="0" /></g><g
         id="g39"><path
           d="m 45,36.6 c -3,0 -6,-0.9 -8.4,-2.6 L 10.2,14.3 C 8.7,13.1 8.4,11 9.5,9.6 10.6,8.1 12.7,7.8 14.2,8.9 l 26.4,19.7 c 2.3,1.7 6.4,1.7 8.7,0 L 75.8,8.9 c 1.5,-1.1 3.6,-0.8 4.7,0.7 1.1,1.5 0.8,3.6 -0.7,4.7 L 53.4,34 C 51,35.7 48,36.6 45,36.6 Z"
           id="path37"
           inkscape:connector-curvature="0" /></g></g></g><g
     id="SMS"
     display="none"
     style="display:none"
     transform="translate(0,10)"><g
       display="inline"
       id="g66"
       style="display:inline"><path
         d="m 33.8,72.1 c 0,2 -1.6,3.6 -3.6,3.6 -2,0 -3.6,-1.6 -3.6,-3.6 0,-2 1.6,-3.6 3.6,-3.6 2,0 3.6,1.6 3.6,3.6 z"
         id="path44"
         inkscape:connector-curvature="0" /><g
         id="g48"><path
           d="M 44.7,65.5 H 15.6 C 14.7,65.5 14,64.8 14,63.9 V 25.5 c 0,-0.9 0.7,-1.6 1.6,-1.6 h 22.5 c 0.9,0 1.6,0.7 1.6,1.6 0,0.9 -0.7,1.6 -1.6,1.6 H 17.3 v 35 H 43.1 V 41.7 c 0,-0.9 0.7,-1.6 1.6,-1.6 0.9,0 1.6,0.7 1.6,1.6 v 22.1 c 0.1,0.9 -0.7,1.7 -1.6,1.7 z"
           id="path46"
           inkscape:connector-curvature="0" /></g><g
         id="g52"><path
           d="M 51.3,85.3 H 9 C 7.1,85.3 5.6,83.8 5.6,81.9 V 15.5 c 0,-1.9 1.5,-3.4 3.4,-3.4 h 29.1 v 6.7 H 12.4 V 78.5 H 48 V 41.8 h 6.7 v 40.1 c 0,1.9 -1.5,3.4 -3.4,3.4 z"
           id="path50"
           inkscape:connector-curvature="0" /></g><g
         id="g56"><path
           d="M 79.8,43 H 42.2 c -2.5,0 -4.5,-2.2 -4.5,-4.9 V 9.6 c 0,-2.7 2,-4.9 4.5,-4.9 h 37.7 c 2.5,0 4.5,2.2 4.5,4.9 V 38.1 C 84.3,40.8 82.3,43 79.8,43 Z M 42.2,8.1 c -0.6,0 -1.1,0.7 -1.1,1.6 v 28.5 c 0,0.9 0.5,1.6 1.1,1.6 h 37.7 c 0.6,0 1.1,-0.7 1.1,-1.6 V 9.6 C 81,8.7 80.5,8 79.9,8 H 42.2 Z"
           id="path54"
           inkscape:connector-curvature="0" /></g><g
         id="g60"><path
           d="M 79.8,43 H 42.2 C 40.3,43 38.6,41.7 38,39.7 37.8,39.1 38,38.5 38.4,38 L 53,22.9 c 0.6,-0.7 1.7,-0.7 2.4,0 0.7,0.6 0.7,1.7 0,2.4 L 41.7,39.5 c 0.2,0.1 0.3,0.2 0.5,0.2 h 37.7 c 0.2,0 0.4,-0.1 0.5,-0.2 l -14,-14.4 c -0.6,-0.7 -0.6,-1.7 0,-2.4 0.7,-0.7 1.7,-0.6 2.4,0 L 83.7,38 c 0.4,0.4 0.6,1.1 0.4,1.7 -0.7,2 -2.4,3.3 -4.3,3.3 z"
           id="path58"
           inkscape:connector-curvature="0" /></g><g
         id="g64"><path
           d="m 61,32.3 c -0.5,0 -0.9,-0.2 -1.2,-0.5 L 38.3,9.7 C 37.9,9.2 37.8,8.5 38,8 38.6,6.1 40.3,4.7 42.2,4.7 h 37.7 c 1.9,0 3.6,1.3 4.2,3.3 0.2,0.6 0,1.2 -0.4,1.7 L 62.2,31.8 c -0.3,0.3 -0.7,0.5 -1.2,0.5 z M 41.7,8.2 61,28.2 80.3,8.2 C 80.1,8.1 80,8 79.8,8 H 42.2 C 42,8.1 41.8,8.1 41.7,8.2 Z"
           id="path62"
           inkscape:connector-curvature="0" /></g></g></g><g
     id="TF"
     display="none"
     style="display:none"
     transform="translate(0,10)"><g
       display="inline"
       id="g91"
       style="display:inline"><g
         id="g71"><path
           d="M 77.8,49 C 77.1,49 76.5,48.9 76,48.6 71.4,46.5 65.5,43.6 60.2,40.5 58.7,39.6 56,36.4 56.7,33.6 l 1.4,-6.2 C 57.9,27.2 57.4,26.8 56.5,26.6 52.7,26 49,25.7 45,25.7 c -3.9,0 -7.7,0.3 -11.3,0.9 -0.9,0.1 -1.5,0.6 -1.7,0.8 l 1.4,6.2 c 0.6,2.9 -2.2,6.1 -3.4,6.9 -6.3,4 -10.4,6.1 -16.2,8.3 -0.5,0.2 -1,0.3 -1.5,0.3 -2.3,0 -5.7,-1.8 -6.8,-4.3 -2.2,-5 -3.3,-10.2 -3.3,-15.6 0,-1.5 0.1,-3 0.3,-4.6 l 0.1,-1.1 0.8,-0.8 c 9.9,-10.4 25,-16.4 41.5,-16.4 16.7,0 31.9,6 41.8,16.4 l 0.8,0.8 0.1,1.1 c 0.2,1.7 0.3,3.2 0.3,4.6 0,5.4 -1.1,10.7 -3.3,15.6 -1.2,2.4 -4.5,4.2 -6.8,4.2 z M 11.5,41.8 c 0.1,0.1 0.4,0.3 0.6,0.4 4.9,-1.9 8.6,-3.8 14.2,-7.4 0,0 0.2,-0.3 0.3,-0.5 l -1.3,-5.7 c -0.4,-1.6 0,-3.4 1,-4.9 1.3,-2 3.6,-3.3 6.2,-3.7 3.9,-0.6 8,-0.9 12.3,-1 4.3,0 8.5,0.4 12.4,1 2.6,0.4 4.9,1.8 6.2,3.7 1,1.5 1.4,3.3 1,5 l -1.3,5.7 c 0.1,0.2 0.3,0.5 0.4,0.6 4.5,2.6 9.9,5.2 14.2,7.3 0.2,-0.1 0.5,-0.3 0.6,-0.4 1.6,-3.8 2.6,-8.2 2.6,-12.7 0,-0.8 0,-1.7 -0.1,-2.7 C 72.2,18 58.9,13 45,13 h -0.4 c -13.9,0 -27.2,5 -35.7,13.5 -0.1,0.9 -0.1,1.8 -0.1,2.7 0.1,4.3 1,8.6 2.7,12.6 z"
           id="path69"
           inkscape:connector-curvature="0" /></g><path
         d="m 31.3,46.9 c -2.8,0 -5.1,2.3 -5.1,5.1 0,2.8 2.3,5.1 5.1,5.1 2.8,0 5.1,-2.3 5.1,-5.1 0,-2.8 -2.2,-5.1 -5.1,-5.1 z"
         id="path73"
         inkscape:connector-curvature="0" /><path
         d="m 44.7,46.9 c -2.8,0 -5.1,2.3 -5.1,5.1 0,2.8 2.3,5.1 5.1,5.1 2.8,0 5.1,-2.3 5.1,-5.1 0,-2.8 -2.3,-5.1 -5.1,-5.1 z"
         id="path75"
         inkscape:connector-curvature="0" /><path
         d="m 58.1,46.9 c -2.8,0 -5.1,2.3 -5.1,5.1 0,2.8 2.3,5.1 5.1,5.1 2.8,0 5.1,-2.3 5.1,-5.1 0,-2.8 -2.3,-5.1 -5.1,-5.1 z"
         id="path77"
         inkscape:connector-curvature="0" /><path
         d="m 31.3,60.2 c -2.8,0 -5.1,2.3 -5.1,5.1 0,2.8 2.3,5.1 5.1,5.1 2.8,0 5.1,-2.3 5.1,-5.1 0,-2.8 -2.2,-5.1 -5.1,-5.1 z"
         id="path79"
         inkscape:connector-curvature="0" /><path
         d="m 44.7,60.2 c -2.8,0 -5.1,2.3 -5.1,5.1 0,2.8 2.3,5.1 5.1,5.1 2.8,0 5.1,-2.3 5.1,-5.1 0,-2.8 -2.3,-5.1 -5.1,-5.1 z"
         id="path81"
         inkscape:connector-curvature="0" /><path
         d="m 58.1,60.2 c -2.8,0 -5.1,2.3 -5.1,5.1 0,2.8 2.3,5.1 5.1,5.1 2.8,0 5.1,-2.3 5.1,-5.1 0,-2.8 -2.3,-5.1 -5.1,-5.1 z"
         id="path83"
         inkscape:connector-curvature="0" /><path
         d="m 31.3,73.6 c -2.8,0 -5.1,2.3 -5.1,5.1 0,2.8 2.3,5.1 5.1,5.1 2.8,0 5.1,-2.3 5.1,-5.1 0,-2.8 -2.2,-5.1 -5.1,-5.1 z"
         id="path85"
         inkscape:connector-curvature="0" /><path
         d="m 44.7,73.6 c -2.8,0 -5.1,2.3 -5.1,5.1 0,2.8 2.3,5.1 5.1,5.1 2.8,0 5.1,-2.3 5.1,-5.1 0,-2.8 -2.3,-5.1 -5.1,-5.1 z"
         id="path87"
         inkscape:connector-curvature="0" /><path
         d="m 58.1,73.6 c -2.8,0 -5.1,2.3 -5.1,5.1 0,2.8 2.3,5.1 5.1,5.1 2.8,0 5.1,-2.3 5.1,-5.1 0,-2.8 -2.3,-5.1 -5.1,-5.1 z"
         id="path89"
         inkscape:connector-curvature="0" /></g></g><g
     id="CALL"
     display="none"
     style="display:none"
     transform="translate(0,10)"><g
       display="inline"
       id="g110"
       style="display:inline"><g
         id="g96"><path
           d="m 16.5,71.3 c -0.8,0 -1.7,0 -2.5,-0.1 -1.5,-0.1 -2.8,-1.2 -3.1,-2.7 -0.3,-1.5 0.5,-3 1.8,-3.7 2.4,-1.2 4.4,-2.7 5.9,-4.6 C 8.6,55.1 2.3,46.2 2.3,36.4 2.3,21 17.8,8.4 36.9,8.4 c 19.1,0 34.6,12.6 34.6,28 0,15.4 -15.5,28 -34.6,28 -0.4,0 -0.8,0 -1.2,0 -4.9,4.5 -11.6,6.9 -19.2,6.9 z m 20.4,-56 C 21.6,15.3 9,24.8 9,36.5 c 0,8 6.2,15.5 15.7,19.1 0.9,0.3 1.6,1 1.9,1.9 0.4,0.9 0.3,1.9 -0.1,2.7 l -0.2,0.3 c -0.2,0.4 -0.4,0.8 -0.6,1.2 -0.3,0.5 -0.6,1 -1,1.5 2.8,-1 5.3,-2.5 7.2,-4.5 0.7,-0.7 1.7,-1 2.6,-1 0.7,0 1.5,0.1 2.3,0.1 15.4,0 27.9,-9.5 27.9,-21.3 0,-11.8 -12.4,-21.2 -27.8,-21.2 z"
           id="path94"
           inkscape:connector-curvature="0" /></g><g
         id="g100"><path
           d="m 75.7,81.5 c -4.4,0 -8.5,-1.2 -11.9,-3.4 -0.2,0 -0.4,0.1 -0.6,0.1 -13.1,2.4 -25.9,-3.6 -30.4,-14.1 -0.7,-1.7 0.1,-3.7 1.8,-4.4 1.7,-0.7 3.7,0.1 4.4,1.8 3.3,7.7 13,12 23.1,10.1 0.6,-0.1 1.1,-0.2 1.7,-0.4 1,-0.3 2.1,0 2.9,0.6 1.3,1 2.7,1.8 4.3,2.2 0,0 0,0 0,0 -0.3,-0.3 -0.5,-0.6 -0.7,-0.9 -0.5,-0.8 -0.8,-1.8 -0.6,-2.7 0.2,-0.9 0.7,-1.8 1.4,-2.3 C 78,63.8 81.8,56.7 80.8,50 79.9,44.5 76.1,40 70.2,37.6 c -1.7,-0.7 -2.5,-2.7 -1.8,-4.4 0.7,-1.7 2.7,-2.6 4.4,-1.8 8,3.2 13.5,9.8 14.7,17.6 1.3,8.2 -2.4,16.7 -9.6,22.6 1.3,1.2 2.9,2 4.7,2.6 1.4,0.5 2.4,1.8 2.3,3.3 0,1.5 -1.1,2.8 -2.5,3.2 -2.3,0.5 -4.5,0.8 -6.7,0.8 z"
           id="path98"
           inkscape:connector-curvature="0" /></g><g
         id="g108"><path
           d="m 23.6,32.6 c -2.4,0 -4.4,2 -4.4,4.4 0,2.4 2,4.4 4.4,4.4 2.4,0 4.4,-2 4.4,-4.4 0,-2.4 -2,-4.4 -4.4,-4.4 z"
           id="path102"
           inkscape:connector-curvature="0" /><path
           d="m 37,32.6 c -2.4,0 -4.4,2 -4.4,4.4 0,2.4 2,4.4 4.4,4.4 2.4,0 4.4,-2 4.4,-4.4 0,-2.4 -2,-4.4 -4.4,-4.4 z"
           id="path104"
           inkscape:connector-curvature="0" /><path
           d="m 50.5,32.6 c -2.4,0 -4.4,2 -4.4,4.4 0,2.4 2,4.4 4.4,4.4 2.4,0 4.4,-2 4.4,-4.4 0,-2.4 -2,-4.4 -4.4,-4.4 z"
           id="path106"
           inkscape:connector-curvature="0" /></g></g></g><g
     id="DAS"
     display="none"
     style="display:none"
     transform="translate(0,10)"><g
       display="inline"
       id="g125"
       style="display:inline"><g
         id="g115"><path
           d="m 83.4,84.5 h -18 C 63.5,84.5 62,83 62,81.1 V 8.9 C 62,7 63.5,5.5 65.4,5.5 h 17.9 c 1.9,0 3.4,1.5 3.4,3.4 v 72.3 c 0,1.8 -1.5,3.3 -3.3,3.3 z M 68.8,77.8 H 80 V 12.2 H 68.8 Z"
           id="path113"
           inkscape:connector-curvature="0" /></g><g
         id="g119"><path
           d="M 54,84.5 H 36 c -1.9,0 -3.4,-1.5 -3.4,-3.4 V 50.3 c 0,-1.9 1.5,-3.4 3.4,-3.4 h 18 c 1.9,0 3.4,1.5 3.4,3.4 V 81.1 C 57.3,83 55.8,84.5 54,84.5 Z M 39.4,77.8 H 50.6 V 53.7 H 39.4 Z"
           id="path117"
           inkscape:connector-curvature="0" /></g><g
         id="g123"><path
           d="M 24.6,84.5 H 6.6 C 4.7,84.5 3.2,83 3.2,81.1 V 35.2 c 0,-1.9 1.5,-3.4 3.4,-3.4 h 17.9 c 1.9,0 3.4,1.5 3.4,3.4 v 45.9 c 0,1.9 -1.5,3.4 -3.3,3.4 z M 10,77.8 H 21.2 V 38.6 H 10 Z"
           id="path121"
           inkscape:connector-curvature="0" /></g></g></g><g
     id="C2C"
     display="none"
     style="display:none"
     transform="translate(0,10)"><g
       display="inline"
       id="g136"
       style="display:inline"><g
         id="g130"><path
           d="M 45,82.5 C 40.3,82.5 35.7,81.6 31.3,79.8 19.9,74.8 15,57.8 14.9,49.7 V 26.4 C 14.7,16.5 23.2,8 33.7,7.5 h 22.5 c 10.7,0.5 19.1,9 18.9,19 V 49.8 C 75,57.9 70.1,75 58.8,79.9 54.3,81.6 49.7,82.5 45,82.5 Z M 56,14.2 H 33.8 c -6.6,0.3 -12.3,5.9 -12.2,12.1 v 23.4 c 0.1,7.6 4.9,20.7 12.3,23.9 6.9,2.8 15.1,2.9 22.2,0 7.3,-3.2 12.1,-16.3 12.2,-23.9 V 26.4 C 68.5,20.1 62.8,14.5 56,14.2 Z"
           id="path128"
           inkscape:connector-curvature="0" /></g><g
         id="g134"><path
           d="m 44.5,31.7 c -1.9,0 -3.4,-1.5 -3.4,-3.4 V 10.8 c 0,-1.9 1.5,-3.4 3.4,-3.4 1.9,0 3.4,1.5 3.4,3.4 v 17.5 c 0,1.9 -1.5,3.4 -3.4,3.4 z"
           id="path132"
           inkscape:connector-curvature="0" /></g></g></g><g
     id="REP"
     display="none"
     style="display:none"
     transform="translate(0,10)"><g
       display="inline"
       id="g153"
       style="display:inline"><g
         id="g147"><g
           id="g141"><path
             d="m 52.3,81.2 c -0.9,0 -1.7,-0.8 -1.7,-1.7 V 59.3 c 0,-0.9 0.8,-1.7 1.7,-1.7 h 20.2 c 0.9,0 1.7,0.8 1.7,1.7 0,0.9 -0.8,1.7 -1.7,1.7 H 54 v 18.5 c 0,0.9 -0.8,1.7 -1.7,1.7 z"
             id="path139"
             inkscape:connector-curvature="0" /></g><g
           id="g145"><path
             d="M 52.3,82.9 H 17.6 c -1.9,0 -3.4,-1.5 -3.4,-3.4 v -69 c 0,-1.9 1.5,-3.4 3.4,-3.4 h 54.9 c 1.9,0 3.4,1.5 3.4,3.4 v 48.8 c 0,0.9 -0.4,1.7 -1,2.4 L 54.7,81.9 c -0.7,0.6 -1.5,1 -2.4,1 z M 20.9,76.1 h 30 L 69.1,57.9 v -44 H 20.9 Z"
             id="path143"
             inkscape:connector-curvature="0" /></g></g><g
         id="g151"><path
           d="m 42.7,47.2 c -0.8,0 -1.5,-0.3 -2.1,-0.8 l -8.4,-6.9 c -1.4,-1.2 -1.7,-3.3 -0.5,-4.7 1.2,-1.4 3.3,-1.7 4.7,-0.5 L 42.2,39 55.5,22.6 c 1.2,-1.4 3.3,-1.7 4.7,-0.5 1.4,1.2 1.7,3.3 0.5,4.7 L 45.3,46 c -0.6,0.7 -1.4,1.1 -2.3,1.2 -0.1,0 -0.2,0 -0.3,0 z"
           id="path149"
           inkscape:connector-curvature="0" /></g></g></g><g
     id="DMKT"
     display="none"
     style="display:none"
     transform="translate(0,10)"><g
       display="inline"
       id="g184"
       style="display:inline"><g
         id="g158"><path
           d="m 30.2,67.1 c -6.8,0 -12.4,-5.6 -12.4,-12.4 0,-6.8 5.6,-12.4 12.4,-12.4 6.8,0 12.4,5.6 12.4,12.4 0,6.8 -5.6,12.4 -12.4,12.4 z m 0,-18.1 c -3.1,0 -5.7,2.6 -5.7,5.7 0,3.1 2.5,5.7 5.7,5.7 3.1,0 5.7,-2.6 5.7,-5.7 0,-3.1 -2.6,-5.7 -5.7,-5.7 z"
           id="path156"
           inkscape:connector-curvature="0" /></g><g
         id="g162"><path
           d="m 63.7,29.5 c -7.2,0 -13,-5.8 -13,-13 0,-7.2 5.8,-13 13,-13 7.2,0 13,5.8 13,13 0,7.2 -5.8,13 -13,13 z m 0,-19.3 c -3.5,0 -6.3,2.8 -6.3,6.3 0,3.5 2.8,6.3 6.3,6.3 3.5,0 6.3,-2.8 6.3,-6.3 0,-3.5 -2.8,-6.3 -6.3,-6.3 z"
           id="path160"
           inkscape:connector-curvature="0" /></g><g
         id="g166"><path
           d="m 45.8,43.2 v 0 c -1.9,0 -3.4,-1.5 -3.4,-3.4 V 29.7 H 32.3 c -1.9,0 -3.4,-1.5 -3.4,-3.4 0,-1.9 1.5,-3.4 3.4,-3.4 h 13.5 c 0.9,0 1.7,0.4 2.4,1 0.6,0.6 1,1.5 1,2.4 v 13.5 c -0.1,1.9 -1.6,3.4 -3.4,3.4 z"
           id="path164"
           inkscape:connector-curvature="0" /></g><g
         id="g170"><path
           d="m 32.3,48.7 c -0.3,0 -0.7,-0.1 -1,-0.2 -1.8,-0.6 -2.7,-2.5 -2.2,-4.2 2,-6.3 5.4,-11.8 10.1,-16.5 1,-1 2.1,-2 3.2,-2.9 1.4,-1.2 3.6,-1 4.7,0.5 1.2,1.4 1,3.6 -0.5,4.7 -0.9,0.7 -1.8,1.5 -2.7,2.4 -3.9,3.9 -6.7,8.5 -8.4,13.8 -0.5,1.5 -1.8,2.4 -3.2,2.4 z"
           id="path168"
           inkscape:connector-curvature="0" /></g><g
         id="g174"><path
           d="M 45,86.6 C 34.9,86.6 24.7,82.7 17,75 1.5,59.5 1.5,34.4 17,19 27.2,8.8 42.1,5 56,9 c 1.8,0.5 2.8,2.4 2.3,4.2 C 57.8,15 55.9,16 54.1,15.5 42.6,12.2 30.2,15.3 21.7,23.8 8.9,36.6 8.9,57.5 21.7,70.3 34.5,83 55.4,83 68.2,70.2 80.8,57.6 81.1,37.6 68.9,24.6 67.6,23.2 67.7,21.1 69.1,19.8 70.5,18.5 72.6,18.6 73.9,20 88.5,35.7 88.1,59.8 73,75 65.2,82.7 55.1,86.6 45,86.6 Z"
           id="path172"
           inkscape:connector-curvature="0" /></g><g
         id="g178"><path
           d="m 56.3,62.1 c -0.9,0 -1.7,-0.3 -2.4,-1 -1.3,-1.3 -1.3,-3.4 0,-4.8 L 64.3,45.9 c 1.3,-1.3 3.4,-1.3 4.8,0 1.3,1.3 1.3,3.4 0,4.8 L 58.7,61.1 c -0.6,0.6 -1.5,1 -2.4,1 z"
           id="path176"
           inkscape:connector-curvature="0" /></g><g
         id="g182"><path
           d="m 66.7,62.1 c -0.9,0 -1.7,-0.3 -2.4,-1 L 54,50.7 c -1.3,-1.3 -1.3,-3.4 0,-4.8 1.3,-1.3 3.4,-1.3 4.8,0 l 10.4,10.4 c 1.3,1.3 1.3,3.4 0,4.8 -0.7,0.6 -1.6,1 -2.5,1 z"
           id="path180"
           inkscape:connector-curvature="0" /></g></g></g><g
     id="MAIL"
     display="none"
     style="display:none"
     transform="translate(0,10)"><g
       display="inline"
       id="g203"
       style="display:inline"><g
         id="g189"><path
           d="m 75.5,87.9 h -61 C 10.1,87.9 6.6,84.3 6.6,80 V 35.5 c 0,-1 0.4,-1.9 1.2,-2.6 L 43,2.9 c 1.3,-1.1 3.1,-1.1 4.4,0 l 34.9,30 c 0.7,0.6 1.2,1.6 1.2,2.6 V 80 c 0,4.3 -3.6,7.9 -8,7.9 z M 13.3,37 v 43 c 0,0.7 0.5,1.2 1.2,1.2 h 61.1 c 0.7,0 1.2,-0.5 1.2,-1.2 V 37 L 45.1,9.9 Z"
           id="path187"
           inkscape:connector-curvature="0" /></g><g
         id="g193"><path
           d="m 75.5,86.2 h -61 c -2.6,0 -4.9,-1.6 -5.8,-4 C 8.5,81.5 8.6,80.8 9.2,80.3 L 44,49.3 c 0.6,-0.6 1.6,-0.6 2.2,0 l 34.8,31 c 0.5,0.5 0.7,1.2 0.5,1.9 -1.1,2.4 -3.4,4 -6,4 z M 12.4,81.9 c 0.5,0.6 1.3,0.9 2.1,0.9 h 61.1 c 0.8,0 1.6,-0.3 2.1,-0.9 L 45,52.8 Z"
           id="path191"
           inkscape:connector-curvature="0" /></g><g
         id="g197"><path
           d="m 55.7,61.6 c -0.5,0 -0.9,-0.2 -1.3,-0.6 -0.6,-0.7 -0.6,-1.8 0.1,-2.4 L 78.6,37.1 c 0.7,-0.6 1.8,-0.6 2.4,0.1 0.6,0.7 0.6,1.8 -0.1,2.4 L 56.8,61.1 c -0.3,0.3 -0.7,0.5 -1.1,0.5 z"
           id="path195"
           inkscape:connector-curvature="0" /></g><g
         id="g201"><path
           d="m 34.5,61.7 c -0.4,0 -0.8,-0.1 -1.1,-0.4 L 9.1,39.7 C 8.4,39 8.3,38 9,37.3 c 0.6,-0.7 1.7,-0.8 2.4,-0.1 l 24.3,21.6 c 0.7,0.6 0.8,1.7 0.1,2.4 -0.4,0.3 -0.9,0.5 -1.3,0.5 z"
           id="path199"
           inkscape:connector-curvature="0" /></g></g></g></svg>