<?xml version="1.0" encoding="UTF-8" standalone="no"?>
<!-- Created with Inkscape (http://www.inkscape.org/) -->

<svg
   xmlns:dc="http://purl.org/dc/elements/1.1/"
   xmlns:cc="http://creativecommons.org/ns#"
   xmlns:rdf="http://www.w3.org/1999/02/22-rdf-syntax-ns#"
   xmlns:svg="http://www.w3.org/2000/svg"
   xmlns="http://www.w3.org/2000/svg"
   xmlns:sodipodi="http://sodipodi.sourceforge.net/DTD/sodipodi-0.dtd"
   xmlns:inkscape="http://www.inkscape.org/namespaces/inkscape"
   width="29"
   height="31"
   viewBox="0 0 7.6729166 8.2020835"
   version="1.1"
   id="svg4504"
   inkscape:version="0.92.1 r15371"
   sodipodi:docname="google+_icon.svg">
  <defs
     id="defs4498" />
  <sodipodi:namedview
     id="base"
     pagecolor="#ffffff"
     bordercolor="#666666"
     borderopacity="1.0"
     inkscape:pageopacity="0.0"
     inkscape:pageshadow="2"
     inkscape:zoom="5.6"
     inkscape:cx="72.179983"
     inkscape:cy="21.663663"
     inkscape:document-units="px"
     inkscape:current-layer="g5099"
     showgrid="false"
     inkscape:pagecheckerboard="true"
     inkscape:showpageshadow="false"
     showguides="true"
     inkscape:guide-bbox="true"
     inkscape:window-width="2560"
     inkscape:window-height="1361"
     inkscape:window-x="-9"
     inkscape:window-y="-9"
     inkscape:window-maximized="1"
     units="px"
     inkscape:measure-start="22.5898,16.0675"
     inkscape:measure-end="24.0585,16.0675">
    <sodipodi:guide
       position="307.08672,69.1886"
       orientation="0,1"
       id="guide5064"
       inkscape:locked="false" />
    <sodipodi:guide
       position="306.78167,59.970321"
       orientation="0,1"
       id="guide5066"
       inkscape:locked="false" />
    <sodipodi:guide
       position="271.31243,69.188601"
       orientation="1,0"
       id="guide5068"
       inkscape:locked="false" />
    <sodipodi:guide
       position="297.11199,59.970321"
       orientation="1,0"
       id="guide5070"
       inkscape:locked="false" />
    <sodipodi:guide
       position="297.09859,34.31713"
       orientation="0,1"
       id="guide5072"
       inkscape:locked="false" />
    <sodipodi:guide
       position="306.84579,35.506139"
       orientation="1,0"
       id="guide5074"
       inkscape:locked="false" />
    <sodipodi:guide
       position="306.84579,95.437511"
       orientation="0,1"
       id="guide5076"
       inkscape:locked="false" />
    <sodipodi:guide
       position="332.71269,69.188601"
       orientation="1,0"
       id="guide5078"
       inkscape:locked="false" />
  </sodipodi:namedview>
  <metadata
     id="metadata4501">
    <rdf:RDF>
      <cc:Work
         rdf:about="">
        <dc:format>image/svg+xml</dc:format>
        <dc:type
           rdf:resource="http://purl.org/dc/dcmitype/StillImage" />
        <dc:title></dc:title>
      </cc:Work>
    </rdf:RDF>
  </metadata>
  <g
     inkscape:label="Layer 1"
     inkscape:groupmode="layer"
     id="layer1"
     transform="translate(0,-288.79792)">
    <g
       id="g5120"
       transform="translate(-0.09777418,0.08389488)">
      <g
         id="g5092">
        <g
           id="g5099"
           style="fill:#ffffff;fill-opacity:1">
          <path
             sodipodi:nodetypes="sasscccccsssscsccssscsccsasscsssscsssssc"
             inkscape:connector-curvature="0"
             id="path5062"
             d="m 2.0537932,296.49681 c -0.448828,-0.0427 -0.9320209,-0.18026 -1.26146427,-0.48806 -0.24642175,-0.23023 -0.45106371,-0.55075 -0.42822786,-0.91664 0.0523517,-0.8388 0.54147023,-1.13805 1.30498263,-1.40083 0.385538,-0.13269 0.6575875,-0.15685 1.0265817,-0.18741 0.09371,-0.008 0.2340212,-0.007 0.2430318,-0.0105 0.026472,-0.009 0.018962,-0.0469 -0.019661,-0.0973 -0.197814,-0.25596 -0.3337818,-0.54604 -0.1721489,-0.86906 0.050178,-0.0987 0.029163,-0.10959 -0.1898905,-0.0981 -0.5607515,0.0647 -1.0737653,-0.0883 -1.4458167,-0.66264 -0.3809819,-0.58813 -0.36207718,-1.13899 -0.00777,-1.71713 0.3813996,-0.62235 1.1448164,-0.89479 1.5240005,-0.91608 0.3791844,-0.0213 2.4709804,-0.0339 2.4377653,-0.0148 l -0.485605,0.27915 H 4.2929831 c -0.2492488,0 -0.2876336,0.002 -0.2945524,0.0207 -0.00438,0.0116 -0.00796,0.0236 -0.00796,0.0274 0.376129,0.29159 0.612654,0.71748 0.6623443,1.09225 0.049689,0.37477 -0.036243,0.72341 -0.2341685,1.04221 -0.2160469,0.34798 -0.6086072,0.4678 -0.7904853,0.78073 -0.047699,0.0821 -0.063132,0.17607 -0.062957,0.25301 -0.00762,0.19626 0.1533946,0.32743 0.2970179,0.44377 0.3162202,0.25612 0.6754512,0.49978 0.9048667,0.833 0.1921446,0.28476 0.274874,0.60029 0.230337,0.9811 -0.055896,0.47791 -0.4062152,0.9515 -0.9252094,1.25923 -0.57994,0.37226 -1.3377607,0.43036 -2.0184271,0.36549 z m 2.2998249,-1.5506 c -0.085261,-0.56616 -0.5046524,-0.80071 -1.0444695,-1.17712 -0.7866775,0.008 -1.5373292,0.084 -1.8478231,0.48723 -0.1777886,0.19315 -0.3041192,0.54491 -0.2493893,0.81978 0.1287952,0.64685 0.7190739,0.88331 1.2592102,0.98312 0.8282235,0.15306 2.0242783,-0.17139 1.8824717,-1.11301 z m -0.7236008,-3.07984 c 0.2664508,-0.34587 0.1957578,-0.97746 0.079185,-1.3679 -0.178056,-0.59637 -0.5609969,-1.11651 -1.1264706,-1.11323 -0.2588926,9.7e-4 -0.4723743,0.0835 -0.6520738,0.28316 -0.2619233,0.29104 -0.338391,0.61593 -0.1955753,1.24464 0.1428157,0.62873 0.3928701,1.09889 1.0198927,1.2533 0.29379,0.0724 0.7146258,-0.0918 0.875042,-0.29997 z"
             style="fill:#ffffff;fill-opacity:1;stroke-width:0.01310626" />
        </g>
      </g>
      <path
         sodipodi:nodetypes="ccccccccccccc"
         inkscape:connector-curvature="0"
         id="path5062-5"
         d="m 6.0741274,293.67648 5.327e-4,-1.01156 H 5.044729 v -0.38852 h 1.0308619 l -8.864e-4,-1.03986 h 0.3885784 v 1.03986 h 1.0326188 l 8.865e-4,0.38852 H 6.4632466 v 1.01156 z"
         style="fill:#ffffff;fill-opacity:1;stroke-width:0.01056229" />
    </g>
  </g>
</svg>
