<?xml version="1.0" encoding="UTF-8" standalone="no"?>
<!-- Created with Inkscape (http://www.inkscape.org/) -->

<svg
   xmlns:dc="http://purl.org/dc/elements/1.1/"
   xmlns:cc="http://creativecommons.org/ns#"
   xmlns:rdf="http://www.w3.org/1999/02/22-rdf-syntax-ns#"
   xmlns:svg="http://www.w3.org/2000/svg"
   xmlns="http://www.w3.org/2000/svg"
   xmlns:sodipodi="http://sodipodi.sourceforge.net/DTD/sodipodi-0.dtd"
   xmlns:inkscape="http://www.inkscape.org/namespaces/inkscape"
   width="15"
   height="17"
   viewBox="0 0 3.9687499 4.4979167"
   version="1.1"
   id="svg8"
   inkscape:version="0.92.1 r15371"
   sodipodi:docname="human_icon.svg">
  <defs
     id="defs2" />
  <sodipodi:namedview
     id="base"
     pagecolor="#ffffff"
     bordercolor="#666666"
     borderopacity="1.0"
     inkscape:pageopacity="0.0"
     inkscape:pageshadow="2"
     inkscape:zoom="44.8"
     inkscape:cx="3.5185035"
     inkscape:cy="8.9882709"
     inkscape:document-units="px"
     inkscape:current-layer="layer1"
     showgrid="false"
     units="px"
     inkscape:showpageshadow="false"
     inkscape:pagecheckerboard="true"
     inkscape:window-width="2560"
     inkscape:window-height="1361"
     inkscape:window-x="-9"
     inkscape:window-y="-9"
     inkscape:window-maximized="1" />
  <metadata
     id="metadata5">
    <rdf:RDF>
      <cc:Work
         rdf:about="">
        <dc:format>image/svg+xml</dc:format>
        <dc:type
           rdf:resource="http://purl.org/dc/dcmitype/StillImage" />
        <dc:title></dc:title>
      </cc:Work>
    </rdf:RDF>
  </metadata>
  <g
     inkscape:label="Layer 1"
     inkscape:groupmode="layer"
     id="layer1"
     transform="translate(0,-292.50208)">
    <path
       style="fill:#ffffff;fill-opacity:1;stroke-width:0.00682758"
       d="m 0.96172022,296.33042 c -0.17783613,-0.0365 -0.32733383,-0.20344 -0.36987335,-0.41286 -0.0118883,-0.0585 -0.0131588,-0.2477 -0.002496,-0.37024 0.0302657,-0.34782 0.14197728,-0.63966 0.29643825,-0.77445 0.10577567,-0.0922 0.21507138,-0.13873 0.35922788,-0.15258 l 0.04771,-0.005 0.040796,0.0334 c 0.2514935,0.20619 0.5580715,0.27749 0.8880138,0.20653 0.1475603,-0.0318 0.2853038,-0.10029 0.4151428,-0.20679 l 0.04111,-0.0337 0.066403,0.008 c 0.2060932,0.0238 0.3663544,0.13117 0.4673664,0.31294 0.1215993,0.21879 0.1835369,0.52032 0.174552,0.84975 -0.0027,0.0985 -0.00661,0.13821 -0.017189,0.17401 -0.030595,0.10358 -0.084243,0.19163 -0.1591885,0.26131 -0.055553,0.0517 -0.1056556,0.0823 -0.1664019,0.10188 l -0.045711,0.0147 -0.9950961,9.5e-4 c -0.8361607,9.3e-4 -1.0023965,-3.2e-4 -1.04080675,-0.008 z m 0.91773848,-1.58824 c -0.141349,-0.0149 -0.2800087,-0.0672 -0.397335,-0.14962 -0.06057,-0.0425 -0.1557814,-0.13809 -0.2014653,-0.20214 -0.050946,-0.0715 -0.1003378,-0.1784 -0.1186622,-0.25703 -0.015615,-0.0669 -0.021448,-0.22978 -0.010713,-0.29898 0.039545,-0.25492 0.2142392,-0.47784 0.4682011,-0.59745 0.1121614,-0.0529 0.2146945,-0.0734 0.3654634,-0.0734 0.198641,0 0.3477829,0.0445 0.4951896,0.14805 0.1859489,0.13052 0.3065442,0.31699 0.3385872,0.52355 0.012115,0.0782 0.00473,0.2388 -0.014315,0.31127 -0.071217,0.27103 -0.3116965,0.50396 -0.5918153,0.57324 -0.1119046,0.0277 -0.2171535,0.0348 -0.3331322,0.0226 z"
       id="path5345"
       inkscape:connector-curvature="0" />
  </g>
</svg>
