<?xml version="1.0" encoding="UTF-8" standalone="no"?>
<!-- Created with Inkscape (http://www.inkscape.org/) -->

<svg
   xmlns:dc="http://purl.org/dc/elements/1.1/"
   xmlns:cc="http://creativecommons.org/ns#"
   xmlns:rdf="http://www.w3.org/1999/02/22-rdf-syntax-ns#"
   xmlns:svg="http://www.w3.org/2000/svg"
   xmlns="http://www.w3.org/2000/svg"
   xmlns:sodipodi="http://sodipodi.sourceforge.net/DTD/sodipodi-0.dtd"
   xmlns:inkscape="http://www.inkscape.org/namespaces/inkscape"
   width="30"
   height="24"
   viewBox="0 0 7.9374998 6.3500002"
   version="1.1"
   id="svg8"
   inkscape:version="0.92.1 r15371"
   sodipodi:docname="leaf_icon.svg">
  <defs
     id="defs2" />
  <sodipodi:namedview
     id="base"
     pagecolor="#ffffff"
     bordercolor="#666666"
     borderopacity="1.0"
     inkscape:pageopacity="0.0"
     inkscape:pageshadow="2"
     inkscape:zoom="15.839192"
     inkscape:cx="39.549455"
     inkscape:cy="10.515722"
     inkscape:document-units="px"
     inkscape:current-layer="layer1"
     showgrid="false"
     units="px"
     inkscape:pagecheckerboard="true"
     inkscape:showpageshadow="false"
     inkscape:window-width="2560"
     inkscape:window-height="1361"
     inkscape:window-x="-9"
     inkscape:window-y="-9"
     inkscape:window-maximized="1" />
  <metadata
     id="metadata5">
    <rdf:RDF>
      <cc:Work
         rdf:about="">
        <dc:format>image/svg+xml</dc:format>
        <dc:type
           rdf:resource="http://purl.org/dc/dcmitype/StillImage" />
        <dc:title></dc:title>
      </cc:Work>
    </rdf:RDF>
  </metadata>
  <g
     inkscape:label="Layer 1"
     inkscape:groupmode="layer"
     id="layer1"
     transform="translate(0,-290.64998)">
    <path
       style="fill:#ffffff;fill-opacity:1;stroke-width:0.01324946"
       d="m 0.42207123,296.99217 c -0.133786,-0.0241 -0.23466,-0.12102 -0.367458,-0.35312 -0.04865,-0.085 -0.0549500043,-0.1057 -0.05460000426,-0.17906 8.55e-4,-0.17869 0.14835100426,-0.37928 0.46333200426,-0.63013 0.252905,-0.20142 0.379077,-0.3264 0.397743,-0.394 0.01299,-0.0471 0.009,-0.0647 -0.04608,-0.20499 -0.08414,-0.21418 -0.09819,-0.28928 -0.106963,-0.57147 -0.01479,-0.4758 0.06217,-0.83239 0.267597,-1.24003 0.20218297,-0.40119 0.44088497,-0.68632 0.84928997,-1.01448 0.381926,-0.30688 0.950739,-0.5973 1.383198,-0.70621 0.271765,-0.0684 0.681341,-0.1028 1.497189,-0.12559 0.740593,-0.0207 0.951994,-0.0396 1.268487,-0.1136 0.300758,-0.0703 0.457101,-0.15624 0.68486,-0.37648 0.266865,-0.25805 0.344878,-0.30241 0.554028,-0.31501 0.144368,-0.009 0.204192,0.0116 0.293493,0.0994 0.183424,0.18035 0.305017,0.52443 0.39916,1.12953 0.07907,0.50821 0.0096,1.19245 -0.178716,1.75981 -0.191335,0.57652 -0.462352,1.01106 -0.906697,1.45377 -0.380753,0.37936 -0.796113,0.67414 -1.333776,0.94659 -1.046171,0.53013 -2.112844,0.63949 -3.150458,0.32299 -0.06154,-0.0188 -0.240701,-0.0967 -0.398136,-0.17314 -0.337734,-0.16402 -0.434093,-0.20269 -0.505126,-0.20269 -0.09218,0 -0.149412,0.0686 -0.43696797,0.52381 -0.08688,0.13753 -0.235839,0.29613 -0.316365,0.33684 -0.06615,0.0335 -0.164744,0.0439 -0.257037,0.0273 z m 1.71895597,-1.74522 c 0.02886,-0.019 0.195804,-0.17537 0.370985,-0.34754 0.384446,-0.37784 0.573552,-0.53962 0.84849,-0.72586 0.559181,-0.37881 1.082963,-0.53873 1.86967,-0.57087 0.235675,-0.01 0.24114,-0.0105 0.304152,-0.0495 0.09166,-0.0567 0.143263,-0.15625 0.134298,-0.25917 -0.0079,-0.0912 -0.05445,-0.16983 -0.129942,-0.21979 -0.04622,-0.0306 -0.07158,-0.0367 -0.17235,-0.0415 -0.06499,-0.003 -0.214959,0.002 -0.333273,0.0103 -0.95307,0.0705 -1.780217,0.4156 -2.51714,1.05004 -0.318351,0.27409 -0.749478,0.71502 -0.793173,0.81122 -0.03119,0.0687 -0.03122,0.15826 -5e-5,0.22686 0.03146,0.0693 0.124511,0.14894 0.185845,0.15914 0.02614,0.004 0.05349,0.009 0.06078,0.0113 0.02936,0.007 0.122322,-0.0221 0.171718,-0.0546 z"
       id="path4509"
       inkscape:connector-curvature="0" />
  </g>
</svg>
