<?xml version="1.0" encoding="UTF-8" standalone="no"?>
<!-- Created with Inkscape (http://www.inkscape.org/) -->

<svg
   xmlns:dc="http://purl.org/dc/elements/1.1/"
   xmlns:cc="http://creativecommons.org/ns#"
   xmlns:rdf="http://www.w3.org/1999/02/22-rdf-syntax-ns#"
   xmlns:svg="http://www.w3.org/2000/svg"
   xmlns="http://www.w3.org/2000/svg"
   xmlns:sodipodi="http://sodipodi.sourceforge.net/DTD/sodipodi-0.dtd"
   xmlns:inkscape="http://www.inkscape.org/namespaces/inkscape"
   width="27"
   height="22"
   viewBox="0 0 7.1437499 5.8208335"
   version="1.1"
   id="svg8"
   inkscape:version="0.92.1 r15371"
   sodipodi:docname="masage_icon.svg">
  <defs
     id="defs2" />
  <sodipodi:namedview
     id="base"
     pagecolor="#ffffff"
     bordercolor="#666666"
     borderopacity="1.0"
     inkscape:pageopacity="0.0"
     inkscape:pageshadow="2"
     inkscape:zoom="31.678384"
     inkscape:cx="16.613607"
     inkscape:cy="8.360446"
     inkscape:document-units="px"
     inkscape:current-layer="layer1"
     showgrid="false"
     units="px"
     inkscape:showpageshadow="false"
     inkscape:pagecheckerboard="true"
     inkscape:window-width="2560"
     inkscape:window-height="1361"
     inkscape:window-x="-9"
     inkscape:window-y="-9"
     inkscape:window-maximized="1" />
  <metadata
     id="metadata5">
    <rdf:RDF>
      <cc:Work
         rdf:about="">
        <dc:format>image/svg+xml</dc:format>
        <dc:type
           rdf:resource="http://purl.org/dc/dcmitype/StillImage" />
        <dc:title></dc:title>
      </cc:Work>
    </rdf:RDF>
  </metadata>
  <g
     inkscape:label="Layer 1"
     inkscape:groupmode="layer"
     id="layer1"
     transform="translate(0,-291.17916)">
    <path
       style="fill:#ffffff;stroke-width:0.01232375;fill-opacity:1"
       d="m 6.0733074,296.70494 c -0.31923,-0.0657 -0.75314,-0.24431 -1.02538,-0.42215 l -0.11342,-0.0741 -0.11457,0.0175 c -0.6004903,0.0917 -1.2524403,0.0221 -1.7884303,-0.19081 -0.14065,-0.0559 -0.50065,-0.24293 -0.4865,-0.25279 0.002,-0.001 0.0758,0.002 0.16391,0.009 0.38851,0.0272 0.92802,-0.0436 1.34336,-0.17625 0.9335303,-0.29815 1.6223003,-0.93726 1.8226403,-1.69122 0.0504,-0.1898 0.0624,-0.28757 0.0615,-0.50188 -8.9e-4,-0.20284 -0.0193,-0.35106 -0.0603,-0.48574 -0.0102,-0.0333 -0.0165,-0.0626 -0.014,-0.065 0.002,-0.002 0.0804,0.0463 0.17332,0.10823 0.19591,0.1307 0.40873,0.32704 0.5308,0.4897 0.15982,0.21294 0.27049,0.46518 0.30272,0.68993 0.0208,0.14539 0.009,0.42435 -0.0243,0.5552 -0.10279,0.40813 -0.38472,0.77566 -0.81439,1.06164 -0.0644,0.0428 -0.1194,0.0798 -0.12225,0.0821 -0.003,0.002 0.0204,0.0557 0.0517,0.11878 0.0632,0.1274 0.17431,0.27709 0.33361,0.44962 0.11124,0.12049 0.13194,0.16403 0.10796,0.22711 -0.0354,0.093 -0.0868,0.10111 -0.32789,0.0515 z m -5.25340024,-0.92367 c -0.0486,-0.0205 -0.0766,-0.063 -0.0766,-0.11646 0,-0.0532 0.0137,-0.0741 0.14125999,-0.21566 0.18185005,-0.20178 0.26103005,-0.31235 0.32554005,-0.45463 l 0.0371,-0.0819 -0.1194799,-0.0776 c -0.31180996,-0.2025 -0.55100996,-0.4602 -0.70160996,-0.75588 -0.36864003,-0.72379 -0.0934,-1.53871 0.69372996,-2.05375 0.8770899,-0.57393 2.1834099,-0.64888 3.1669499,-0.18171 0.28426,0.13502 0.4981403,0.28553 0.6983703,0.49144 0.23641,0.24314 0.36546,0.46482 0.44251,0.76015 0.0252,0.0965 0.0289,0.13966 0.0289,0.33274 0,0.1928 -0.004,0.23634 -0.0289,0.33274 -0.0944,0.36301 -0.302,0.67143 -0.63312,0.94069 -0.3605103,0.29317 -0.9109503,0.51516 -1.4572103,0.58769 -0.30732,0.0408 -0.71844,0.0363 -1.01627,-0.0111 l -0.0995,-0.0158 -0.12609,0.0795 c -0.33273,0.20982 -0.77813,0.38208 -1.13244987,0.43798 -0.086,0.0136 -0.11383999,0.0138 -0.14321999,0.002 z m 1.14909994,-0.92704 0.13508,-0.0922 0.14837,0.0265 c 0.4325,0.0773 0.77432,0.0808 1.15892,0.0119 0.51314,-0.092 0.95625,-0.31302 1.2549603,-0.62606 0.23245,-0.24361 0.34187,-0.51184 0.32444,-0.79537 -0.009,-0.15139 -0.0322,-0.24105 -0.0952,-0.3722 -0.24036,-0.50073 -0.9043803,-0.88769 -1.6791403,-0.97854 -0.19433,-0.0228 -0.70757,-0.008 -0.8834,0.0249 -0.71601,0.13537 -1.2713199,0.48971 -1.49801994,0.95585 -0.0727,0.14955 -0.0953,0.25065 -0.0951,0.42517 1.9e-4,0.11754 0.006,0.16065 0.0333,0.25264 0.0567,0.19008 0.16678999,0.3651 0.33343004,0.52992 0.12633,0.12495 0.2653399,0.22315 0.5263799,0.37184 0.11386,0.0649 0.20703,0.11927 0.20703,0.1209 0,0.002 -0.0171,0.0439 -0.038,0.094 -0.0209,0.0501 -0.0488,0.118 -0.062,0.15096 l -0.024,0.0599 0.0589,-0.034 c 0.0324,-0.0187 0.11969,-0.0755 0.19398,-0.1262 z"
       id="path4496"
       inkscape:connector-curvature="0" />
  </g>
</svg>
