<?xml version="1.0" encoding="UTF-8" standalone="no"?>
<!-- Created with Inkscape (http://www.inkscape.org/) -->

<svg
   xmlns:dc="http://purl.org/dc/elements/1.1/"
   xmlns:cc="http://creativecommons.org/ns#"
   xmlns:rdf="http://www.w3.org/1999/02/22-rdf-syntax-ns#"
   xmlns:svg="http://www.w3.org/2000/svg"
   xmlns="http://www.w3.org/2000/svg"
   xmlns:sodipodi="http://sodipodi.sourceforge.net/DTD/sodipodi-0.dtd"
   xmlns:inkscape="http://www.inkscape.org/namespaces/inkscape"
   width="30"
   height="24"
   viewBox="0 0 7.9374995 6.3499998"
   version="1.1"
   id="svg8"
   inkscape:version="0.92.1 r15371"
   sodipodi:docname="twitter_icon.svg">
  <defs
     id="defs2" />
  <sodipodi:namedview
     id="base"
     pagecolor="#ffffff"
     bordercolor="#666666"
     borderopacity="1.0"
     inkscape:pageopacity="0.0"
     inkscape:pageshadow="2"
     inkscape:zoom="15.839192"
     inkscape:cx="22.860591"
     inkscape:cy="8.4516917"
     inkscape:document-units="px"
     inkscape:current-layer="layer1"
     showgrid="false"
     units="px"
     showborder="true"
     inkscape:pagecheckerboard="true"
     inkscape:showpageshadow="false"
     inkscape:window-width="2560"
     inkscape:window-height="1361"
     inkscape:window-x="-9"
     inkscape:window-y="-9"
     inkscape:window-maximized="1" />
  <metadata
     id="metadata5">
    <rdf:RDF>
      <cc:Work
         rdf:about="">
        <dc:format>image/svg+xml</dc:format>
        <dc:type
           rdf:resource="http://purl.org/dc/dcmitype/StillImage" />
        <dc:title></dc:title>
      </cc:Work>
    </rdf:RDF>
  </metadata>
  <g
     inkscape:label="Layer 1"
     inkscape:groupmode="layer"
     id="layer1"
     transform="translate(0,-290.65)">
    <path
       style="fill:#ffffff;stroke-width:0.01855718;fill-opacity:1"
       d="m 2.1820633,296.71774 c -0.485081,-0.0433 -1.074756,-0.20601 -1.47345298,-0.40664 -0.08567,-0.0431 -0.444041,-0.24305 -0.444027,-0.24773 4e-6,-0.001 0.164931,-0.003 0.366504,-0.003 0.42293498,0 0.60865698,-0.0271 0.95173298,-0.13909 0.296494,-0.0968 0.582188,-0.24281 0.813495,-0.41589 l 0.09973,-0.0746 -0.163922,-0.0237 c -0.195671,-0.0282 -0.306902,-0.0629 -0.48091,-0.14982 -0.306191,-0.15294 -0.569381,-0.42833 -0.707204,-0.73997 -0.0244,-0.0552 -0.04436,-0.10719 -0.04436,-0.11561 0,-0.008 0.102296,-0.0144 0.227325,-0.0134 0.326883,0.003 0.511048,-0.0365 0.343718,-0.0732 -0.114006,-0.025 -0.348227,-0.1349 -0.464499,-0.21787 -0.24231398,-0.17291 -0.46503098,-0.45876 -0.55259298,-0.70924 -0.04889,-0.13986 -0.09211,-0.35839 -0.09211,-0.46576 v -0.0822 l 0.06959,0.0349 c 0.120219,0.0604 0.286902,0.11026 0.43897298,0.13141 0.08068,0.0112 0.148746,0.0182 0.15125,0.0155 0.0025,-0.003 -0.05043,-0.0508 -0.117625,-0.10692 -0.22707798,-0.18969 -0.41007098,-0.47943 -0.48988098,-0.77563 -0.02947,-0.10936 -0.03843,-0.19746 -0.03812,-0.37491 4.42e-4,-0.26017 0.0342,-0.42249 0.133319,-0.6411 l 0.05772,-0.1273 0.11387,0.12904 c 0.70185398,0.79533 1.69302098,1.31599 2.72801198,1.43303 0.150044,0.017 0.27734,0.0263 0.282878,0.0208 0.0055,-0.006 0.0011,-0.0804 -0.0099,-0.16638 -0.09336,-0.72906 0.373157,-1.42851 1.09116,-1.63596 0.210681,-0.0609 0.618308,-0.0604 0.831203,10e-4 0.197267,0.0569 0.403932,0.16934 0.559508,0.30443 0.122784,0.10662 0.129878,0.11 0.208552,0.0995 0.136579,-0.0183 0.519899,-0.15557 0.702072,-0.25148 0.0947,-0.0498 0.172179,-0.0814 0.172179,-0.0702 0,0.0112 -0.03333,0.0893 -0.07407,0.17346 -0.107874,0.22287 -0.262158,0.40274 -0.501555,0.58473 l -0.0637,0.0484 0.126894,-0.017 c 0.138703,-0.0186 0.482257,-0.11491 0.639699,-0.17936 l 0.09944,-0.0407 -0.09786,0.12579 c -0.126441,0.16251 -0.403151,0.44614 -0.551027,0.56479 l -0.115982,0.0931 -1.6e-5,0.17933 c -1.4e-4,1.23994 -0.560595,2.47365 -1.512099,3.32833 -0.81307,0.73034 -2.016549,1.1036 -3.213866,0.99681 z"
       id="path4496"
       inkscape:connector-curvature="0" />
  </g>
</svg>
