<svg xmlns:dc="http://purl.org/dc/elements/1.1/" xmlns:cc="http://creativecommons.org/ns#" xmlns:rdf="http://www.w3.org/1999/02/22-rdf-syntax-ns#" xmlns:svg="http://www.w3.org/2000/svg" xmlns="http://www.w3.org/2000/svg" xmlns:sodipodi="http://sodipodi.sourceforge.net/DTD/sodipodi-0.dtd" xmlns:inkscape="http://www.inkscape.org/namespaces/inkscape" version="1.1" enable-background="new 0 0 90 90" xml:space="preserve" sodipodi:docname="girl_icon.svg" inkscape:version="0.92.1 r15371" width="100" height="100" style=""><rect id="backgroundrect" width="100%" height="100%" x="0" y="0" fill="none" stroke="none"/><metadata id="metadata212"><rdf:RDF><cc:Work rdf:about=""><dc:format>image/svg+xml</dc:format><dc:type rdf:resource="http://purl.org/dc/dcmitype/StillImage"/><dc:title/></cc:Work></rdf:RDF></metadata><defs id="defs210"/><sodipodi:namedview pagecolor="#ffffff" bordercolor="#666666" borderopacity="1" objecttolerance="10" gridtolerance="10" guidetolerance="10" inkscape:pageopacity="0" inkscape:pageshadow="2" inkscape:window-width="2299" inkscape:window-height="1336" id="namedview208" showgrid="false" inkscape:zoom="5.2444445" inkscape:cx="88.859193" inkscape:cy="36.997187" inkscape:window-x="55" inkscape:window-y="66" inkscape:window-maximized="0" inkscape:current-layer="SR" showguides="true" inkscape:guide-bbox="true"><sodipodi:guide position="50,50" orientation="0,1" id="guide4812" inkscape:locked="false" inkscape:label="" inkscape:color="rgb(0,0,255)"/><sodipodi:guide position="50,112.5" orientation="1,0" id="guide4814" inkscape:locked="false" inkscape:label="" inkscape:color="rgb(0,0,255)"/></sodipodi:namedview><g class="currentLayer" style=""><title>Layer 1</title><g id="SR" class="selected" stroke-opacity="1" stroke="#35b76f" fill-opacity="1" fill="#9dacad"><g id="g26" stroke="#35b76f" fill="#9dacad"><g id="g4810" stroke="#35b76f" fill="#9dacad"><g id="g4" stroke-width="0" stroke="#35b76f" fill="#9dacad"><path sodipodi:nodetypes="scccccsscccccssscs" inkscape:connector-curvature="0" id="path2" d="m73.78926428133562,56.63157847652092 c-0.5263158,0 -1.0526316,-0.10526316000000001 -1.4736842399999999,-0.3157894800000001 c-2.52631584,-1.15789476 -5.6723769555528,-2.281489519314 -8.514482275552801,-3.0183316393140003 L66.21031676133562,46.52631511652093 c2.0000000399999998,0.5263158 4.0000000799999995,1.26315792 6.00000012,2.0000000399999998 c1.5789474000000001,-3.89473692 2.42105268,-8.10526332 2.42105268,-12.526316040000001 C74.52610640133562,19.999998796520924 63.47347460133562,7.052630116520924 49.99979012133562,7.052630116520924 C36.526105641335626,7.052630116520924 25.473473841335625,19.999998796520924 25.473473841335625,35.99999911652093 c0,4.31578956 0.8421052800000001,8.63157912 2.42105268,12.526316040000001 c1.89473688,-0.7368421200000002 3.89473692,-1.36842108 6.00000012,-2.0000000399999998 l2.4092189955528003,6.60260539521 C33.46164031688843,53.865762631730924 30.315579201335627,55.157894236520924 27.789263361335625,56.31578899652093 C26.105052801335628,57.15789427652093 23.999789601335628,56.42105215652093 23.157684321335626,54.842104756520925 C19.999789521335625,49.15789411652093 18.420842121335625,42.63157819652093 18.420842121335625,35.99999911652093 C18.420842121335625,16.105261876520924 32.526105561335626,-0.0000016034790757402106 49.99979012133562,-0.0000016034790757402106 c17.473684560000002,0 31.578948,16.10526348 31.578948,36.00000072 c0,6.63157908 -1.5789474000000001,13.157895 -4.63157904,18.84210564 c-0.6315789600000002,1.15789476 -1.89473688,1.7894737200000002 -3.1578948000000002,1.7894737200000002 z" stroke-width="0" stroke="#35b76f" fill="#9dacad"/></g><g id="g8" stroke-width="0" stroke="#35b76f" fill="#9dacad"><path sodipodi:nodetypes="cccssccsccccccccssccccccccccccscsscccscczc" inkscape:connector-curvature="0" id="path6" d="m48.21031640133562,60.631578556520914 c-9.36842124,-1.0526316 -16.42105296,-9.89473704 -19.36842144,-24.2105268 c-0.3157894800000001,-1.36842108 -0.42105264000000003,-2.73684216 -0.5263158,-4.4210527200000005 c0,-0.5263158 0.10526316000000001,-0.94736844 0.5263158,-1.36842108 c0.3157894800000001,-0.3157894800000001 0.8421052800000001,-0.5263158 1.26315792,-0.5263158 h9.68421072 l1.5789474000000001,-11.368421280000002 c0.10526316000000001,-0.8421052800000001 0.8421052800000001,-1.4736842399999999 1.7894737200000002,-1.4736842399999999 c0.8421052800000001,0 1.5789474000000001,0.6315789600000002 1.7894737200000002,1.4736842399999999 l1.5789474000000001,11.368421280000002 H48.94715852133562 l0.5263158,-5.36842116 C49.57873748133562,23.789472556520924 50.31557960133562,23.157893596520925 51.262948041335626,23.157893596520925 v0 c0.94736844,0 1.6842105600000001,0.7368421200000002 1.7894737200000002,1.5789474000000001 l0.5263158,5.36842116 h16.3157898 c0.5263158,0 0.94736844,0.21052632000000002 1.26315792,0.5263158 c0.3157894800000001,0.3157894800000001 0.5263158,0.8421052800000001 0.5263158,1.36842108 c-0.10526316000000001,1.5789474000000001 -0.21052632000000002,3.05263164 -0.5263158,4.4210527200000005 C69.57873788133563,44.210525596520924 66.84189572133563,50.31578887652093 63.052421961335625,54.526315276520926 v0 c-1.6335431905656,1.9084474065900001 -2.0150716192488,2.1803200436064 -4.2105264,3.57894744 c-0.6967779086724004,0.4593610618188001 -1.3344873951108,0.7546189624608002 -2.0000000399999998,1.15789476 c-3.335510593026,1.2811568677284002 -4.428913772788801,1.5661968734292002 -8.63157912,1.36842108 zm12.21052656,-8.52631596 v0 v0 C63.684000921335624,48.42105199652093 66.21031676133562,42.842104516520926 67.68400100133562,35.789472796520926 C67.78926416133562,35.15789383652093 67.89452732133563,34.52631487652092 67.99979048133562,33.78947275652093 H51.999790161335625 c-0.21052632000000002,0 -0.5263158,0 -0.7368421200000002,-0.10526316000000001 c-0.21052632000000002,0.10526316000000001 -0.42105264000000003,0.10526316000000001 -0.7368421200000002,0.10526316000000001 h-5.57894748 c-0.8421052800000001,0 -1.5789474000000001,-0.6315789600000002 -1.7894737200000002,-1.5789474000000001 v-0.3157894800000001 v0.3157894800000001 c-0.10526316000000001,0.8421052800000001 -0.8421052800000001,1.5789474000000001 -1.7894737200000002,1.5789474000000001 h-9.36842124 c0.10526316000000001,0.7368421200000002 0.21052632000000002,1.36842108 0.3157894800000001,2.0000000399999998 c2.631579,12.736842359999999 9.4964138741388,21.3630204272604 16.21052664,21.368421480000002 c6.7141127658612,0.005368421160000002 8.535801223347601,-1.6936958233476003 11.89473708,-5.05263168 z" stroke-width="0" stroke="#35b76f" fill="#9dacad"/></g><g id="g18" stroke-width="0" stroke="#35b76f" fill="#9dacad"><g id="g12" stroke-width="0" stroke="#35b76f" fill="#9dacad"><path inkscape:connector-curvature="0" id="path10" d="M24.736631721335627,79.99999999652091 H17.684000001335626 C17.684000001335626,66.84210499652092 29.05242128133563,56.10526267652092 43.15768472133562,56.10526267652092 V63.15789439652092 C32.947158201335625,63.15789439652092 24.736631721335627,70.73684191652092 24.736631721335627,79.99999999652091 z" stroke-width="0" stroke="#35b76f" fill="#9dacad"/></g><g id="g16" stroke-width="0" stroke="#35b76f" fill="#9dacad"><path inkscape:connector-curvature="0" id="path14" d="M82.31558024133562,79.99999999652091 H75.26294852133562 C75.26294852133562,70.73684191652092 67.05242204133563,63.15789439652092 56.84189552133562,63.15789439652092 v-7.05263172 c14.10526344,0 25.473684719999998,10.73684232 25.473684719999998,23.89473732 z" stroke-width="0" stroke="#35b76f" fill="#9dacad"/></g></g><g id="g24" stroke-width="0" stroke="#35b76f" fill="#9dacad"><path inkscape:connector-curvature="0" id="path20" d="m42.52610576133562,36.42105175652093 c-1.15789476,0 -2.1052632,0.94736844 -2.1052632,2.1052632 c0,1.15789476 0.94736844,2.1052632 2.1052632,2.1052632 c1.15789476,0 2.1052632,-0.94736844 2.1052632,-2.1052632 c0,-1.15789476 -0.94736844,-2.1052632 -2.1052632,-2.1052632 z" stroke-width="0" stroke="#35b76f" fill="#9dacad"/><path inkscape:connector-curvature="0" id="path22" d="m57.47347448133562,36.42105175652093 c-1.15789476,0 -2.1052632,0.94736844 -2.1052632,2.1052632 c0,1.15789476 0.94736844,2.1052632 2.1052632,2.1052632 c1.15789476,0 2.1052632,-0.94736844 2.1052632,-2.1052632 c0,-1.15789476 -0.94736844,-2.1052632 -2.1052632,-2.1052632 z" stroke-width="0" stroke="#35b76f" fill="#9dacad"/></g></g></g></g><g id="MCA" display="none" style="display:none" class="selected" stroke-opacity="1" stroke="#35b76f" fill-opacity="1" fill="#9dacad"><g display="inline" id="g41" style="display:inline" stroke="#35b76f" fill="#9dacad"><g id="g31" stroke="#35b76f" fill="#9dacad"><path d="m 75.7,84.1 c -0.6,0 -1.2,-0.1 -1.8,-0.4 -4.3,-2 -9.8,-4.7 -14.8,-7.6 -1.5,-0.9 -4,-4 -3.4,-6.8 L 57,63.6 C 56.8,63.4 56.4,63.1 55.7,63 52.3,62.5 48.8,62.2 45.1,62.2 c -3.6,0 -7.2,0.3 -10.5,0.8 -0.7,0.1 -1.1,0.4 -1.3,0.6 l 1.3,5.7 c 0.6,2.8 -2.1,5.9 -3.3,6.6 -5.9,3.8 -9.8,5.7 -15.2,7.8 L 15.3,84 H 14.4 C 12.1,84 8.9,82.3 7.8,79.9 5.7,75.2 4.7,70.3 4.7,65.2 4.7,63.8 4.8,62.3 5,60.8 L 5.1,59.7 5.9,59 c 9.3,-9.8 23.5,-15.4 39,-15.4 h 0.4 c 15.6,0.1 29.6,5.7 38.9,15.4 l 0.8,0.8 0.1,1.1 c 0.2,1.5 0.3,2.9 0.3,4.4 0,5.1 -1,10 -3.1,14.7 -1.2,2.4 -4.4,4.1 -6.6,4.1 z M 13.9,77 c 0.1,0.1 0.3,0.2 0.4,0.2 4.5,-1.8 8,-3.6 13.2,-6.9 0,0 0.1,-0.1 0.2,-0.3 l -1.2,-5.2 c -0.4,-1.6 0,-3.3 1,-4.8 1.3,-1.9 3.4,-3.2 6,-3.6 3.6,-0.6 7.5,-0.9 11.5,-0.9 4.1,0 8,0.3 11.6,0.9 2.5,0.4 4.7,1.7 6,3.6 1,1.5 1.3,3.2 0.9,4.8 L 62.3,70 c 0.1,0.2 0.2,0.3 0.3,0.4 4.2,2.4 9.1,4.8 13.1,6.7 0.1,-0.1 0.2,-0.1 0.3,-0.2 1.6,-3.7 2.4,-7.7 2.4,-11.8 0,-0.8 0,-1.6 -0.1,-2.4 C 70.3,54.8 57.9,50.2 45,50.2 h -0.5 c -12.8,0 -25.1,4.7 -33.1,12.5 -0.1,0.8 -0.1,1.6 -0.1,2.5 0.1,4.1 1,8.1 2.6,11.8 z" id="path29" inkscape:connector-curvature="0" stroke="#35b76f" fill="#9dacad"/></g><g id="g35" stroke="#35b76f" fill="#9dacad"><path d="m 79.7,31 c -1.9,0 -3.4,-1.5 -3.4,-3.4 v -15 h -15 c -1.9,0 -3.4,-1.5 -3.4,-3.4 0,-1.9 1.5,-3.4 3.4,-3.4 v 0 h 18.4 c 1.9,0 3.4,1.5 3.4,3.4 V 27.6 C 83,29.5 81.5,31 79.7,31 Z" id="path33" inkscape:connector-curvature="0" stroke="#35b76f" fill="#9dacad"/></g><g id="g39" stroke="#35b76f" fill="#9dacad"><path d="m 45,36.6 c -3,0 -6,-0.9 -8.4,-2.6 L 10.2,14.3 C 8.7,13.1 8.4,11 9.5,9.6 10.6,8.1 12.7,7.8 14.2,8.9 l 26.4,19.7 c 2.3,1.7 6.4,1.7 8.7,0 L 75.8,8.9 c 1.5,-1.1 3.6,-0.8 4.7,0.7 1.1,1.5 0.8,3.6 -0.7,4.7 L 53.4,34 C 51,35.7 48,36.6 45,36.6 Z" id="path37" inkscape:connector-curvature="0" stroke="#35b76f" fill="#9dacad"/></g></g></g><g id="SMS" display="none" style="display:none" class="selected" stroke-opacity="1" stroke="#35b76f" fill-opacity="1" fill="#9dacad"><g display="inline" id="g66" style="display:inline" stroke="#35b76f" fill="#9dacad"><path d="m 33.8,72.1 c 0,2 -1.6,3.6 -3.6,3.6 -2,0 -3.6,-1.6 -3.6,-3.6 0,-2 1.6,-3.6 3.6,-3.6 2,0 3.6,1.6 3.6,3.6 z" id="path44" inkscape:connector-curvature="0" stroke="#35b76f" fill="#9dacad"/><g id="g48" stroke="#35b76f" fill="#9dacad"><path d="M 44.7,65.5 H 15.6 C 14.7,65.5 14,64.8 14,63.9 V 25.5 c 0,-0.9 0.7,-1.6 1.6,-1.6 h 22.5 c 0.9,0 1.6,0.7 1.6,1.6 0,0.9 -0.7,1.6 -1.6,1.6 H 17.3 v 35 H 43.1 V 41.7 c 0,-0.9 0.7,-1.6 1.6,-1.6 0.9,0 1.6,0.7 1.6,1.6 v 22.1 c 0.1,0.9 -0.7,1.7 -1.6,1.7 z" id="path46" inkscape:connector-curvature="0" stroke="#35b76f" fill="#9dacad"/></g><g id="g52" stroke="#35b76f" fill="#9dacad"><path d="M 51.3,85.3 H 9 C 7.1,85.3 5.6,83.8 5.6,81.9 V 15.5 c 0,-1.9 1.5,-3.4 3.4,-3.4 h 29.1 v 6.7 H 12.4 V 78.5 H 48 V 41.8 h 6.7 v 40.1 c 0,1.9 -1.5,3.4 -3.4,3.4 z" id="path50" inkscape:connector-curvature="0" stroke="#35b76f" fill="#9dacad"/></g><g id="g56" stroke="#35b76f" fill="#9dacad"><path d="M 79.8,43 H 42.2 c -2.5,0 -4.5,-2.2 -4.5,-4.9 V 9.6 c 0,-2.7 2,-4.9 4.5,-4.9 h 37.7 c 2.5,0 4.5,2.2 4.5,4.9 V 38.1 C 84.3,40.8 82.3,43 79.8,43 Z M 42.2,8.1 c -0.6,0 -1.1,0.7 -1.1,1.6 v 28.5 c 0,0.9 0.5,1.6 1.1,1.6 h 37.7 c 0.6,0 1.1,-0.7 1.1,-1.6 V 9.6 C 81,8.7 80.5,8 79.9,8 H 42.2 Z" id="path54" inkscape:connector-curvature="0" stroke="#35b76f" fill="#9dacad"/></g><g id="g60" stroke="#35b76f" fill="#9dacad"><path d="M 79.8,43 H 42.2 C 40.3,43 38.6,41.7 38,39.7 37.8,39.1 38,38.5 38.4,38 L 53,22.9 c 0.6,-0.7 1.7,-0.7 2.4,0 0.7,0.6 0.7,1.7 0,2.4 L 41.7,39.5 c 0.2,0.1 0.3,0.2 0.5,0.2 h 37.7 c 0.2,0 0.4,-0.1 0.5,-0.2 l -14,-14.4 c -0.6,-0.7 -0.6,-1.7 0,-2.4 0.7,-0.7 1.7,-0.6 2.4,0 L 83.7,38 c 0.4,0.4 0.6,1.1 0.4,1.7 -0.7,2 -2.4,3.3 -4.3,3.3 z" id="path58" inkscape:connector-curvature="0" stroke="#35b76f" fill="#9dacad"/></g><g id="g64" stroke="#35b76f" fill="#9dacad"><path d="m 61,32.3 c -0.5,0 -0.9,-0.2 -1.2,-0.5 L 38.3,9.7 C 37.9,9.2 37.8,8.5 38,8 38.6,6.1 40.3,4.7 42.2,4.7 h 37.7 c 1.9,0 3.6,1.3 4.2,3.3 0.2,0.6 0,1.2 -0.4,1.7 L 62.2,31.8 c -0.3,0.3 -0.7,0.5 -1.2,0.5 z M 41.7,8.2 61,28.2 80.3,8.2 C 80.1,8.1 80,8 79.8,8 H 42.2 C 42,8.1 41.8,8.1 41.7,8.2 Z" id="path62" inkscape:connector-curvature="0" stroke="#35b76f" fill="#9dacad"/></g></g></g><g id="TF" display="none" style="display:none" class="selected" stroke-opacity="1" stroke="#35b76f" fill-opacity="1" fill="#9dacad"><g display="inline" id="g91" style="display:inline" stroke="#35b76f" fill="#9dacad"><g id="g71" stroke="#35b76f" fill="#9dacad"><path d="M 77.8,49 C 77.1,49 76.5,48.9 76,48.6 71.4,46.5 65.5,43.6 60.2,40.5 58.7,39.6 56,36.4 56.7,33.6 l 1.4,-6.2 C 57.9,27.2 57.4,26.8 56.5,26.6 52.7,26 49,25.7 45,25.7 c -3.9,0 -7.7,0.3 -11.3,0.9 -0.9,0.1 -1.5,0.6 -1.7,0.8 l 1.4,6.2 c 0.6,2.9 -2.2,6.1 -3.4,6.9 -6.3,4 -10.4,6.1 -16.2,8.3 -0.5,0.2 -1,0.3 -1.5,0.3 -2.3,0 -5.7,-1.8 -6.8,-4.3 -2.2,-5 -3.3,-10.2 -3.3,-15.6 0,-1.5 0.1,-3 0.3,-4.6 l 0.1,-1.1 0.8,-0.8 c 9.9,-10.4 25,-16.4 41.5,-16.4 16.7,0 31.9,6 41.8,16.4 l 0.8,0.8 0.1,1.1 c 0.2,1.7 0.3,3.2 0.3,4.6 0,5.4 -1.1,10.7 -3.3,15.6 -1.2,2.4 -4.5,4.2 -6.8,4.2 z M 11.5,41.8 c 0.1,0.1 0.4,0.3 0.6,0.4 4.9,-1.9 8.6,-3.8 14.2,-7.4 0,0 0.2,-0.3 0.3,-0.5 l -1.3,-5.7 c -0.4,-1.6 0,-3.4 1,-4.9 1.3,-2 3.6,-3.3 6.2,-3.7 3.9,-0.6 8,-0.9 12.3,-1 4.3,0 8.5,0.4 12.4,1 2.6,0.4 4.9,1.8 6.2,3.7 1,1.5 1.4,3.3 1,5 l -1.3,5.7 c 0.1,0.2 0.3,0.5 0.4,0.6 4.5,2.6 9.9,5.2 14.2,7.3 0.2,-0.1 0.5,-0.3 0.6,-0.4 1.6,-3.8 2.6,-8.2 2.6,-12.7 0,-0.8 0,-1.7 -0.1,-2.7 C 72.2,18 58.9,13 45,13 h -0.4 c -13.9,0 -27.2,5 -35.7,13.5 -0.1,0.9 -0.1,1.8 -0.1,2.7 0.1,4.3 1,8.6 2.7,12.6 z" id="path69" inkscape:connector-curvature="0" stroke="#35b76f" fill="#9dacad"/></g><path d="m 31.3,46.9 c -2.8,0 -5.1,2.3 -5.1,5.1 0,2.8 2.3,5.1 5.1,5.1 2.8,0 5.1,-2.3 5.1,-5.1 0,-2.8 -2.2,-5.1 -5.1,-5.1 z" id="path73" inkscape:connector-curvature="0" stroke="#35b76f" fill="#9dacad"/><path d="m 44.7,46.9 c -2.8,0 -5.1,2.3 -5.1,5.1 0,2.8 2.3,5.1 5.1,5.1 2.8,0 5.1,-2.3 5.1,-5.1 0,-2.8 -2.3,-5.1 -5.1,-5.1 z" id="path75" inkscape:connector-curvature="0" stroke="#35b76f" fill="#9dacad"/><path d="m 58.1,46.9 c -2.8,0 -5.1,2.3 -5.1,5.1 0,2.8 2.3,5.1 5.1,5.1 2.8,0 5.1,-2.3 5.1,-5.1 0,-2.8 -2.3,-5.1 -5.1,-5.1 z" id="path77" inkscape:connector-curvature="0" stroke="#35b76f" fill="#9dacad"/><path d="m 31.3,60.2 c -2.8,0 -5.1,2.3 -5.1,5.1 0,2.8 2.3,5.1 5.1,5.1 2.8,0 5.1,-2.3 5.1,-5.1 0,-2.8 -2.2,-5.1 -5.1,-5.1 z" id="path79" inkscape:connector-curvature="0" stroke="#35b76f" fill="#9dacad"/><path d="m 44.7,60.2 c -2.8,0 -5.1,2.3 -5.1,5.1 0,2.8 2.3,5.1 5.1,5.1 2.8,0 5.1,-2.3 5.1,-5.1 0,-2.8 -2.3,-5.1 -5.1,-5.1 z" id="path81" inkscape:connector-curvature="0" stroke="#35b76f" fill="#9dacad"/><path d="m 58.1,60.2 c -2.8,0 -5.1,2.3 -5.1,5.1 0,2.8 2.3,5.1 5.1,5.1 2.8,0 5.1,-2.3 5.1,-5.1 0,-2.8 -2.3,-5.1 -5.1,-5.1 z" id="path83" inkscape:connector-curvature="0" stroke="#35b76f" fill="#9dacad"/><path d="m 31.3,73.6 c -2.8,0 -5.1,2.3 -5.1,5.1 0,2.8 2.3,5.1 5.1,5.1 2.8,0 5.1,-2.3 5.1,-5.1 0,-2.8 -2.2,-5.1 -5.1,-5.1 z" id="path85" inkscape:connector-curvature="0" stroke="#35b76f" fill="#9dacad"/><path d="m 44.7,73.6 c -2.8,0 -5.1,2.3 -5.1,5.1 0,2.8 2.3,5.1 5.1,5.1 2.8,0 5.1,-2.3 5.1,-5.1 0,-2.8 -2.3,-5.1 -5.1,-5.1 z" id="path87" inkscape:connector-curvature="0" stroke="#35b76f" fill="#9dacad"/><path d="m 58.1,73.6 c -2.8,0 -5.1,2.3 -5.1,5.1 0,2.8 2.3,5.1 5.1,5.1 2.8,0 5.1,-2.3 5.1,-5.1 0,-2.8 -2.3,-5.1 -5.1,-5.1 z" id="path89" inkscape:connector-curvature="0" stroke="#35b76f" fill="#9dacad"/></g></g><g id="CALL" display="none" style="display:none" class="selected" stroke-opacity="1" stroke="#35b76f" fill-opacity="1" fill="#9dacad"><g display="inline" id="g110" style="display:inline" stroke="#35b76f" fill="#9dacad"><g id="g96" stroke="#35b76f" fill="#9dacad"><path d="m 16.5,71.3 c -0.8,0 -1.7,0 -2.5,-0.1 -1.5,-0.1 -2.8,-1.2 -3.1,-2.7 -0.3,-1.5 0.5,-3 1.8,-3.7 2.4,-1.2 4.4,-2.7 5.9,-4.6 C 8.6,55.1 2.3,46.2 2.3,36.4 2.3,21 17.8,8.4 36.9,8.4 c 19.1,0 34.6,12.6 34.6,28 0,15.4 -15.5,28 -34.6,28 -0.4,0 -0.8,0 -1.2,0 -4.9,4.5 -11.6,6.9 -19.2,6.9 z m 20.4,-56 C 21.6,15.3 9,24.8 9,36.5 c 0,8 6.2,15.5 15.7,19.1 0.9,0.3 1.6,1 1.9,1.9 0.4,0.9 0.3,1.9 -0.1,2.7 l -0.2,0.3 c -0.2,0.4 -0.4,0.8 -0.6,1.2 -0.3,0.5 -0.6,1 -1,1.5 2.8,-1 5.3,-2.5 7.2,-4.5 0.7,-0.7 1.7,-1 2.6,-1 0.7,0 1.5,0.1 2.3,0.1 15.4,0 27.9,-9.5 27.9,-21.3 0,-11.8 -12.4,-21.2 -27.8,-21.2 z" id="path94" inkscape:connector-curvature="0" stroke="#35b76f" fill="#9dacad"/></g><g id="g100" stroke="#35b76f" fill="#9dacad"><path d="m 75.7,81.5 c -4.4,0 -8.5,-1.2 -11.9,-3.4 -0.2,0 -0.4,0.1 -0.6,0.1 -13.1,2.4 -25.9,-3.6 -30.4,-14.1 -0.7,-1.7 0.1,-3.7 1.8,-4.4 1.7,-0.7 3.7,0.1 4.4,1.8 3.3,7.7 13,12 23.1,10.1 0.6,-0.1 1.1,-0.2 1.7,-0.4 1,-0.3 2.1,0 2.9,0.6 1.3,1 2.7,1.8 4.3,2.2 0,0 0,0 0,0 -0.3,-0.3 -0.5,-0.6 -0.7,-0.9 -0.5,-0.8 -0.8,-1.8 -0.6,-2.7 0.2,-0.9 0.7,-1.8 1.4,-2.3 C 78,63.8 81.8,56.7 80.8,50 79.9,44.5 76.1,40 70.2,37.6 c -1.7,-0.7 -2.5,-2.7 -1.8,-4.4 0.7,-1.7 2.7,-2.6 4.4,-1.8 8,3.2 13.5,9.8 14.7,17.6 1.3,8.2 -2.4,16.7 -9.6,22.6 1.3,1.2 2.9,2 4.7,2.6 1.4,0.5 2.4,1.8 2.3,3.3 0,1.5 -1.1,2.8 -2.5,3.2 -2.3,0.5 -4.5,0.8 -6.7,0.8 z" id="path98" inkscape:connector-curvature="0" stroke="#35b76f" fill="#9dacad"/></g><g id="g108" stroke="#35b76f" fill="#9dacad"><path d="m 23.6,32.6 c -2.4,0 -4.4,2 -4.4,4.4 0,2.4 2,4.4 4.4,4.4 2.4,0 4.4,-2 4.4,-4.4 0,-2.4 -2,-4.4 -4.4,-4.4 z" id="path102" inkscape:connector-curvature="0" stroke="#35b76f" fill="#9dacad"/><path d="m 37,32.6 c -2.4,0 -4.4,2 -4.4,4.4 0,2.4 2,4.4 4.4,4.4 2.4,0 4.4,-2 4.4,-4.4 0,-2.4 -2,-4.4 -4.4,-4.4 z" id="path104" inkscape:connector-curvature="0" stroke="#35b76f" fill="#9dacad"/><path d="m 50.5,32.6 c -2.4,0 -4.4,2 -4.4,4.4 0,2.4 2,4.4 4.4,4.4 2.4,0 4.4,-2 4.4,-4.4 0,-2.4 -2,-4.4 -4.4,-4.4 z" id="path106" inkscape:connector-curvature="0" stroke="#35b76f" fill="#9dacad"/></g></g></g><g id="DAS" display="none" style="display:none" class="selected" stroke-opacity="1" stroke="#35b76f" fill-opacity="1" fill="#9dacad"><g display="inline" id="g125" style="display:inline" stroke="#35b76f" fill="#9dacad"><g id="g115" stroke="#35b76f" fill="#9dacad"><path d="m 83.4,84.5 h -18 C 63.5,84.5 62,83 62,81.1 V 8.9 C 62,7 63.5,5.5 65.4,5.5 h 17.9 c 1.9,0 3.4,1.5 3.4,3.4 v 72.3 c 0,1.8 -1.5,3.3 -3.3,3.3 z M 68.8,77.8 H 80 V 12.2 H 68.8 Z" id="path113" inkscape:connector-curvature="0" stroke="#35b76f" fill="#9dacad"/></g><g id="g119" stroke="#35b76f" fill="#9dacad"><path d="M 54,84.5 H 36 c -1.9,0 -3.4,-1.5 -3.4,-3.4 V 50.3 c 0,-1.9 1.5,-3.4 3.4,-3.4 h 18 c 1.9,0 3.4,1.5 3.4,3.4 V 81.1 C 57.3,83 55.8,84.5 54,84.5 Z M 39.4,77.8 H 50.6 V 53.7 H 39.4 Z" id="path117" inkscape:connector-curvature="0" stroke="#35b76f" fill="#9dacad"/></g><g id="g123" stroke="#35b76f" fill="#9dacad"><path d="M 24.6,84.5 H 6.6 C 4.7,84.5 3.2,83 3.2,81.1 V 35.2 c 0,-1.9 1.5,-3.4 3.4,-3.4 h 17.9 c 1.9,0 3.4,1.5 3.4,3.4 v 45.9 c 0,1.9 -1.5,3.4 -3.3,3.4 z M 10,77.8 H 21.2 V 38.6 H 10 Z" id="path121" inkscape:connector-curvature="0" stroke="#35b76f" fill="#9dacad"/></g></g></g><g id="C2C" display="none" style="display:none" class="selected" stroke-opacity="1" stroke="#35b76f" fill-opacity="1" fill="#9dacad"><g display="inline" id="g136" style="display:inline" stroke="#35b76f" fill="#9dacad"><g id="g130" stroke="#35b76f" fill="#9dacad"><path d="M 45,82.5 C 40.3,82.5 35.7,81.6 31.3,79.8 19.9,74.8 15,57.8 14.9,49.7 V 26.4 C 14.7,16.5 23.2,8 33.7,7.5 h 22.5 c 10.7,0.5 19.1,9 18.9,19 V 49.8 C 75,57.9 70.1,75 58.8,79.9 54.3,81.6 49.7,82.5 45,82.5 Z M 56,14.2 H 33.8 c -6.6,0.3 -12.3,5.9 -12.2,12.1 v 23.4 c 0.1,7.6 4.9,20.7 12.3,23.9 6.9,2.8 15.1,2.9 22.2,0 7.3,-3.2 12.1,-16.3 12.2,-23.9 V 26.4 C 68.5,20.1 62.8,14.5 56,14.2 Z" id="path128" inkscape:connector-curvature="0" stroke="#35b76f" fill="#9dacad"/></g><g id="g134" stroke="#35b76f" fill="#9dacad"><path d="m 44.5,31.7 c -1.9,0 -3.4,-1.5 -3.4,-3.4 V 10.8 c 0,-1.9 1.5,-3.4 3.4,-3.4 1.9,0 3.4,1.5 3.4,3.4 v 17.5 c 0,1.9 -1.5,3.4 -3.4,3.4 z" id="path132" inkscape:connector-curvature="0" stroke="#35b76f" fill="#9dacad"/></g></g></g><g id="REP" display="none" style="display:none" class="selected" stroke-opacity="1" stroke="#35b76f" fill-opacity="1" fill="#9dacad"><g display="inline" id="g153" style="display:inline" stroke="#35b76f" fill="#9dacad"><g id="g147" stroke="#35b76f" fill="#9dacad"><g id="g141" stroke="#35b76f" fill="#9dacad"><path d="m 52.3,81.2 c -0.9,0 -1.7,-0.8 -1.7,-1.7 V 59.3 c 0,-0.9 0.8,-1.7 1.7,-1.7 h 20.2 c 0.9,0 1.7,0.8 1.7,1.7 0,0.9 -0.8,1.7 -1.7,1.7 H 54 v 18.5 c 0,0.9 -0.8,1.7 -1.7,1.7 z" id="path139" inkscape:connector-curvature="0" stroke="#35b76f" fill="#9dacad"/></g><g id="g145" stroke="#35b76f" fill="#9dacad"><path d="M 52.3,82.9 H 17.6 c -1.9,0 -3.4,-1.5 -3.4,-3.4 v -69 c 0,-1.9 1.5,-3.4 3.4,-3.4 h 54.9 c 1.9,0 3.4,1.5 3.4,3.4 v 48.8 c 0,0.9 -0.4,1.7 -1,2.4 L 54.7,81.9 c -0.7,0.6 -1.5,1 -2.4,1 z M 20.9,76.1 h 30 L 69.1,57.9 v -44 H 20.9 Z" id="path143" inkscape:connector-curvature="0" stroke="#35b76f" fill="#9dacad"/></g></g><g id="g151" stroke="#35b76f" fill="#9dacad"><path d="m 42.7,47.2 c -0.8,0 -1.5,-0.3 -2.1,-0.8 l -8.4,-6.9 c -1.4,-1.2 -1.7,-3.3 -0.5,-4.7 1.2,-1.4 3.3,-1.7 4.7,-0.5 L 42.2,39 55.5,22.6 c 1.2,-1.4 3.3,-1.7 4.7,-0.5 1.4,1.2 1.7,3.3 0.5,4.7 L 45.3,46 c -0.6,0.7 -1.4,1.1 -2.3,1.2 -0.1,0 -0.2,0 -0.3,0 z" id="path149" inkscape:connector-curvature="0" stroke="#35b76f" fill="#9dacad"/></g></g></g><g id="DMKT" display="none" style="display:none" class="selected" stroke-opacity="1" stroke="#35b76f" fill-opacity="1" fill="#9dacad"><g display="inline" id="g184" style="display:inline" stroke="#35b76f" fill="#9dacad"><g id="g158" stroke="#35b76f" fill="#9dacad"><path d="m 30.2,67.1 c -6.8,0 -12.4,-5.6 -12.4,-12.4 0,-6.8 5.6,-12.4 12.4,-12.4 6.8,0 12.4,5.6 12.4,12.4 0,6.8 -5.6,12.4 -12.4,12.4 z m 0,-18.1 c -3.1,0 -5.7,2.6 -5.7,5.7 0,3.1 2.5,5.7 5.7,5.7 3.1,0 5.7,-2.6 5.7,-5.7 0,-3.1 -2.6,-5.7 -5.7,-5.7 z" id="path156" inkscape:connector-curvature="0" stroke="#35b76f" fill="#9dacad"/></g><g id="g162" stroke="#35b76f" fill="#9dacad"><path d="m 63.7,29.5 c -7.2,0 -13,-5.8 -13,-13 0,-7.2 5.8,-13 13,-13 7.2,0 13,5.8 13,13 0,7.2 -5.8,13 -13,13 z m 0,-19.3 c -3.5,0 -6.3,2.8 -6.3,6.3 0,3.5 2.8,6.3 6.3,6.3 3.5,0 6.3,-2.8 6.3,-6.3 0,-3.5 -2.8,-6.3 -6.3,-6.3 z" id="path160" inkscape:connector-curvature="0" stroke="#35b76f" fill="#9dacad"/></g><g id="g166" stroke="#35b76f" fill="#9dacad"><path d="m 45.8,43.2 v 0 c -1.9,0 -3.4,-1.5 -3.4,-3.4 V 29.7 H 32.3 c -1.9,0 -3.4,-1.5 -3.4,-3.4 0,-1.9 1.5,-3.4 3.4,-3.4 h 13.5 c 0.9,0 1.7,0.4 2.4,1 0.6,0.6 1,1.5 1,2.4 v 13.5 c -0.1,1.9 -1.6,3.4 -3.4,3.4 z" id="path164" inkscape:connector-curvature="0" stroke="#35b76f" fill="#9dacad"/></g><g id="g170" stroke="#35b76f" fill="#9dacad"><path d="m 32.3,48.7 c -0.3,0 -0.7,-0.1 -1,-0.2 -1.8,-0.6 -2.7,-2.5 -2.2,-4.2 2,-6.3 5.4,-11.8 10.1,-16.5 1,-1 2.1,-2 3.2,-2.9 1.4,-1.2 3.6,-1 4.7,0.5 1.2,1.4 1,3.6 -0.5,4.7 -0.9,0.7 -1.8,1.5 -2.7,2.4 -3.9,3.9 -6.7,8.5 -8.4,13.8 -0.5,1.5 -1.8,2.4 -3.2,2.4 z" id="path168" inkscape:connector-curvature="0" stroke="#35b76f" fill="#9dacad"/></g><g id="g174" stroke="#35b76f" fill="#9dacad"><path d="M 45,86.6 C 34.9,86.6 24.7,82.7 17,75 1.5,59.5 1.5,34.4 17,19 27.2,8.8 42.1,5 56,9 c 1.8,0.5 2.8,2.4 2.3,4.2 C 57.8,15 55.9,16 54.1,15.5 42.6,12.2 30.2,15.3 21.7,23.8 8.9,36.6 8.9,57.5 21.7,70.3 34.5,83 55.4,83 68.2,70.2 80.8,57.6 81.1,37.6 68.9,24.6 67.6,23.2 67.7,21.1 69.1,19.8 70.5,18.5 72.6,18.6 73.9,20 88.5,35.7 88.1,59.8 73,75 65.2,82.7 55.1,86.6 45,86.6 Z" id="path172" inkscape:connector-curvature="0" stroke="#35b76f" fill="#9dacad"/></g><g id="g178" stroke="#35b76f" fill="#9dacad"><path d="m 56.3,62.1 c -0.9,0 -1.7,-0.3 -2.4,-1 -1.3,-1.3 -1.3,-3.4 0,-4.8 L 64.3,45.9 c 1.3,-1.3 3.4,-1.3 4.8,0 1.3,1.3 1.3,3.4 0,4.8 L 58.7,61.1 c -0.6,0.6 -1.5,1 -2.4,1 z" id="path176" inkscape:connector-curvature="0" stroke="#35b76f" fill="#9dacad"/></g><g id="g182" stroke="#35b76f" fill="#9dacad"><path d="m 66.7,62.1 c -0.9,0 -1.7,-0.3 -2.4,-1 L 54,50.7 c -1.3,-1.3 -1.3,-3.4 0,-4.8 1.3,-1.3 3.4,-1.3 4.8,0 l 10.4,10.4 c 1.3,1.3 1.3,3.4 0,4.8 -0.7,0.6 -1.6,1 -2.5,1 z" id="path180" inkscape:connector-curvature="0" stroke="#35b76f" fill="#9dacad"/></g></g></g><g id="MAIL" display="none" style="display:none" class="selected" stroke-opacity="1" stroke="#35b76f" fill-opacity="1" fill="#9dacad"><g display="inline" id="g203" style="display:inline" stroke="#35b76f" fill="#9dacad"><g id="g189" stroke="#35b76f" fill="#9dacad"><path d="m 75.5,87.9 h -61 C 10.1,87.9 6.6,84.3 6.6,80 V 35.5 c 0,-1 0.4,-1.9 1.2,-2.6 L 43,2.9 c 1.3,-1.1 3.1,-1.1 4.4,0 l 34.9,30 c 0.7,0.6 1.2,1.6 1.2,2.6 V 80 c 0,4.3 -3.6,7.9 -8,7.9 z M 13.3,37 v 43 c 0,0.7 0.5,1.2 1.2,1.2 h 61.1 c 0.7,0 1.2,-0.5 1.2,-1.2 V 37 L 45.1,9.9 Z" id="path187" inkscape:connector-curvature="0" stroke="#35b76f" fill="#9dacad"/></g><g id="g193" stroke="#35b76f" fill="#9dacad"><path d="m 75.5,86.2 h -61 c -2.6,0 -4.9,-1.6 -5.8,-4 C 8.5,81.5 8.6,80.8 9.2,80.3 L 44,49.3 c 0.6,-0.6 1.6,-0.6 2.2,0 l 34.8,31 c 0.5,0.5 0.7,1.2 0.5,1.9 -1.1,2.4 -3.4,4 -6,4 z M 12.4,81.9 c 0.5,0.6 1.3,0.9 2.1,0.9 h 61.1 c 0.8,0 1.6,-0.3 2.1,-0.9 L 45,52.8 Z" id="path191" inkscape:connector-curvature="0" stroke="#35b76f" fill="#9dacad"/></g><g id="g197" stroke="#35b76f" fill="#9dacad"><path d="m 55.7,61.6 c -0.5,0 -0.9,-0.2 -1.3,-0.6 -0.6,-0.7 -0.6,-1.8 0.1,-2.4 L 78.6,37.1 c 0.7,-0.6 1.8,-0.6 2.4,0.1 0.6,0.7 0.6,1.8 -0.1,2.4 L 56.8,61.1 c -0.3,0.3 -0.7,0.5 -1.1,0.5 z" id="path195" inkscape:connector-curvature="0" stroke="#35b76f" fill="#9dacad"/></g><g id="g201" stroke="#35b76f" fill="#9dacad"><path d="m 34.5,61.7 c -0.4,0 -0.8,-0.1 -1.1,-0.4 L 9.1,39.7 C 8.4,39 8.3,38 9,37.3 c 0.6,-0.7 1.7,-0.8 2.4,-0.1 l 24.3,21.6 c 0.7,0.6 0.8,1.7 0.1,2.4 -0.4,0.3 -0.9,0.5 -1.3,0.5 z" id="path199" inkscape:connector-curvature="0" stroke="#35b76f" fill="#9dacad"/></g></g></g></g></svg>