<svg xmlns:dc="http://purl.org/dc/elements/1.1/" xmlns:cc="http://creativecommons.org/ns#" xmlns:rdf="http://www.w3.org/1999/02/22-rdf-syntax-ns#" xmlns:svg="http://www.w3.org/2000/svg" xmlns="http://www.w3.org/2000/svg" xmlns:sodipodi="http://sodipodi.sourceforge.net/DTD/sodipodi-0.dtd" xmlns:inkscape="http://www.inkscape.org/namespaces/inkscape" version="1.1" enable-background="new 0 0 90 90" xml:space="preserve" sodipodi:docname="girl.svg" inkscape:version="0.92.2 (5c3e80d, 2017-08-06)" width="90" height="90" style=""><rect id="backgroundrect" width="100%" height="100%" x="0" y="0" fill="none" stroke="none"/><metadata id="metadata212"><rdf:RDF><cc:Work rdf:about=""><dc:format>image/svg+xml</dc:format><dc:type rdf:resource="http://purl.org/dc/dcmitype/StillImage"/><dc:title/></cc:Work></rdf:RDF></metadata><defs id="defs210"/><sodipodi:namedview pagecolor="#ffffff" bordercolor="#666666" borderopacity="1" objecttolerance="10" gridtolerance="10" guidetolerance="10" inkscape:pageopacity="0" inkscape:pageshadow="2" inkscape:window-width="2299" inkscape:window-height="1336" id="namedview208" showgrid="false" inkscape:zoom="7.4167645" inkscape:cx="6.8385651" inkscape:cy="34.926968" inkscape:window-x="55" inkscape:window-y="66" inkscape:window-maximized="0" inkscape:current-layer="g26"/><g class="currentLayer" style=""><title>Layer 1</title><g id="SR" class="" stroke="none" opacity="1" fill="#ffffff" fill-opacity="1"><g id="g26" stroke="none" stroke-opacity="1" opacity="1" fill="#ffffff" fill-opacity="1"><g id="g4" stroke="none" stroke-opacity="1" opacity="1" fill="#ffffff" fill-opacity="1"><path d="m 67.6,60.8 c -0.5,0 -1,-0.1 -1.4,-0.3 -2.4,-1.1 -5.388758,-2.167415 -8.088758,-2.867415 L 60.4,51.2 c 1.9,0.5 3.8,1.2 5.7,1.9 1.5,-3.7 2.3,-7.7 2.3,-11.9 C 68.3,26 57.8,13.7 45,13.7 32.2,13.7 21.7,26 21.7,41.2 c 0,4.1 0.8,8.2 2.3,11.9 1.8,-0.7 3.7,-1.3 5.7,-1.9 l 2.288758,6.272475 C 29.288758,58.172475 26.3,59.4 23.9,60.5 22.3,61.3 20.3,60.6 19.5,59.1 16.5,53.7 15,47.5 15,41.2 15,22.3 28.4,7 45,7 c 16.6,0 30,15.3 30,34.2 0,6.3 -1.5,12.5 -4.4,17.9 -0.6,1.1 -1.8,1.7 -3,1.7 z" id="path2" inkscape:connector-curvature="0" sodipodi:nodetypes="scccccsscccccssscs" stroke="none" stroke-opacity="1" opacity="1" fill="#ffffff" fill-opacity="1"/></g><g id="g8" stroke="none" stroke-opacity="1" opacity="1" fill="#ffffff" fill-opacity="1"><path d="m 43.3,64.6 c -8.9,-1 -15.6,-9.4 -18.4,-23 -0.3,-1.3 -0.4,-2.6 -0.5,-4.2 0,-0.5 0.1,-0.9 0.5,-1.3 0.3,-0.3 0.8,-0.5 1.2,-0.5 h 9.2 l 1.5,-10.8 c 0.1,-0.8 0.8,-1.4 1.7,-1.4 0.8,0 1.5,0.6 1.7,1.4 l 1.5,10.8 H 44 l 0.5,-5.1 C 44.6,29.6 45.3,29 46.2,29 v 0 c 0.9,0 1.6,0.7 1.7,1.5 l 0.5,5.1 h 15.5 c 0.5,0 0.9,0.2 1.2,0.5 0.3,0.3 0.5,0.8 0.5,1.3 -0.1,1.5 -0.2,2.9 -0.5,4.2 C 63.6,49 61,54.8 57.4,58.8 v 0 c -1.551866,1.813025 -1.914318,2.071304 -4,3.4 -0.661939,0.436393 -1.267763,0.716888 -1.9,1.1 -3.168735,1.217099 -4.207468,1.487887 -8.2,1.3 z m 11.6,-8.1 v 0 0 C 58,53 60.4,47.7 61.8,41 61.9,40.4 62,39.8 62.1,39.1 H 46.9 c -0.2,0 -0.5,0 -0.7,-0.1 -0.2,0.1 -0.4,0.1 -0.7,0.1 h -5.3 c -0.8,0 -1.5,-0.6 -1.7,-1.5 v -0.3 0.3 c -0.1,0.8 -0.8,1.5 -1.7,1.5 h -8.9 c 0.1,0.7 0.2,1.3 0.3,1.9 2.5,12.1 9.021593,20.294869 15.4,20.3 6.378407,0.0051 8.109011,-1.609011 11.3,-4.8 z" id="path6" inkscape:connector-curvature="0" sodipodi:nodetypes="cccssccsccccccccssccccccccccccscsscccscczc" stroke="none" stroke-opacity="1" opacity="1" fill="#ffffff" fill-opacity="1"/></g><g id="g18" stroke="none" stroke-opacity="1" opacity="1" fill="#ffffff" fill-opacity="1"><g id="g12" stroke="none" stroke-opacity="1" opacity="1" fill="#ffffff" fill-opacity="1"><path d="M21,83h-6.7c0-12.5,10.8-22.7,24.2-22.7V67C28.8,67,21,74.2,21,83L21,83z" id="path10" stroke="none" stroke-opacity="1" opacity="1" fill="#ffffff" fill-opacity="1"/></g><g id="g16" stroke="none" stroke-opacity="1" opacity="1" fill="#ffffff" fill-opacity="1"><path d="M75.7,83H69c0-8.8-7.8-16-17.5-16v-6.7C64.9,60.3,75.7,70.5,75.7,83L75.7,83z" id="path14" stroke="none" stroke-opacity="1" opacity="1" fill="#ffffff" fill-opacity="1"/></g></g><g id="g24" stroke="none" stroke-opacity="1" opacity="1" fill="#ffffff" fill-opacity="1"><path d="M37.9,41.6c-1.1,0-2,0.9-2,2c0,1.1,0.9,2,2,2c1.1,0,2-0.9,2-2C39.9,42.5,39,41.6,37.9,41.6L37.9,41.6z" id="path20" stroke="none" stroke-opacity="1" opacity="1" fill="#ffffff" fill-opacity="1"/><path d="M52.1,41.6c-1.1,0-2,0.9-2,2c0,1.1,0.9,2,2,2c1.1,0,2-0.9,2-2C54.1,42.5,53.2,41.6,52.1,41.6L52.1,41.6z" id="path22" stroke="none" stroke-opacity="1" opacity="1" fill="#ffffff" fill-opacity="1"/></g></g></g><g id="MCA" display="none"><g display="inline" id="g41"><g id="g31"><path d="M75.7,84.1c-0.6,0-1.2-0.1-1.8-0.4c-4.3-2-9.8-4.7-14.8-7.6c-1.5-0.9-4-4-3.4-6.8l1.3-5.7c-0.2-0.2-0.6-0.5-1.3-0.6     c-3.4-0.5-6.9-0.8-10.6-0.8c-3.6,0-7.2,0.3-10.5,0.8c-0.7,0.1-1.1,0.4-1.3,0.6l1.3,5.7c0.6,2.8-2.1,5.9-3.3,6.6     c-5.9,3.8-9.8,5.7-15.2,7.8L15.3,84l-0.9,0c-2.3,0-5.5-1.7-6.6-4.1c-2.1-4.7-3.1-9.6-3.1-14.7c0-1.4,0.1-2.9,0.3-4.4l0.1-1.1     L5.9,59c9.3-9.8,23.5-15.4,39-15.4l0.4,0c15.6,0.1,29.6,5.7,38.9,15.4l0.8,0.8l0.1,1.1c0.2,1.5,0.3,2.9,0.3,4.4     c0,5.1-1,10-3.1,14.7C81.1,82.4,77.9,84.1,75.7,84.1L75.7,84.1z M13.9,77c0.1,0.1,0.3,0.2,0.4,0.2c4.5-1.8,8-3.6,13.2-6.9     c0,0,0.1-0.1,0.2-0.3l-1.2-5.2c-0.4-1.6,0-3.3,1-4.8c1.3-1.9,3.4-3.2,6-3.6c3.6-0.6,7.5-0.9,11.5-0.9c4.1,0,8,0.3,11.6,0.9     c2.5,0.4,4.7,1.7,6,3.6c1,1.5,1.3,3.2,0.9,4.8l-1.2,5.2c0.1,0.2,0.2,0.3,0.3,0.4c4.2,2.4,9.1,4.8,13.1,6.7     c0.1-0.1,0.2-0.1,0.3-0.2c1.6-3.7,2.4-7.7,2.4-11.8c0-0.8,0-1.6-0.1-2.4c-8-7.9-20.4-12.5-33.3-12.5l-0.5,0     c-12.8,0-25.1,4.7-33.1,12.5c-0.1,0.8-0.1,1.6-0.1,2.5C11.4,69.3,12.3,73.3,13.9,77L13.9,77z" id="path29"/></g><g id="g35"><path d="M79.7,31c-1.9,0-3.4-1.5-3.4-3.4l0-15l-15,0c-1.9,0-3.4-1.5-3.4-3.4c0-1.9,1.5-3.4,3.4-3.4l0,0l18.4,0     c1.9,0,3.4,1.5,3.4,3.4l0,18.4C83,29.5,81.5,31,79.7,31L79.7,31L79.7,31z" id="path33"/></g><g id="g39"><path d="M45,36.6c-3,0-6-0.9-8.4-2.6L10.2,14.3C8.7,13.1,8.4,11,9.5,9.6c1.1-1.5,3.2-1.8,4.7-0.7l26.4,19.7     c2.3,1.7,6.4,1.7,8.7,0L75.8,8.9c1.5-1.1,3.6-0.8,4.7,0.7c1.1,1.5,0.8,3.6-0.7,4.7L53.4,34C51,35.7,48,36.6,45,36.6L45,36.6z" id="path37"/></g></g></g><g id="SMS" display="none"><g display="inline" id="g66"><path d="M33.8,72.1c0,2-1.6,3.6-3.6,3.6c-2,0-3.6-1.6-3.6-3.6c0-2,1.6-3.6,3.6-3.6C32.2,68.5,33.8,70.1,33.8,72.1z" id="path44"/><g id="g48"><path d="M44.7,65.5H15.6c-0.9,0-1.6-0.7-1.6-1.6V25.5c0-0.9,0.7-1.6,1.6-1.6h22.5c0.9,0,1.6,0.7,1.6,1.6c0,0.9-0.7,1.6-1.6,1.6     H17.3v35h25.8V41.7c0-0.9,0.7-1.6,1.6-1.6c0.9,0,1.6,0.7,1.6,1.6v22.1C46.4,64.7,45.6,65.5,44.7,65.5L44.7,65.5z" id="path46"/></g><g id="g52"><path d="M51.3,85.3H9c-1.9,0-3.4-1.5-3.4-3.4V15.5c0-1.9,1.5-3.4,3.4-3.4h29.1v6.7H12.4v59.7H48V41.8h6.7v40.1     C54.7,83.8,53.2,85.3,51.3,85.3L51.3,85.3z" id="path50"/></g><g id="g56"><path d="M79.8,43H42.2c-2.5,0-4.5-2.2-4.5-4.9V9.6c0-2.7,2-4.9,4.5-4.9h37.7c2.5,0,4.5,2.2,4.5,4.9v28.5     C84.3,40.8,82.3,43,79.8,43L79.8,43z M42.2,8.1c-0.6,0-1.1,0.7-1.1,1.6v28.5c0,0.9,0.5,1.6,1.1,1.6h37.7c0.6,0,1.1-0.7,1.1-1.6     V9.6c0-0.9-0.5-1.6-1.1-1.6H42.2L42.2,8.1z" id="path54"/></g><g id="g60"><path d="M79.8,43H42.2c-1.9,0-3.6-1.3-4.2-3.3c-0.2-0.6,0-1.2,0.4-1.7L53,22.9c0.6-0.7,1.7-0.7,2.4,0c0.7,0.6,0.7,1.7,0,2.4     L41.7,39.5c0.2,0.1,0.3,0.2,0.5,0.2h37.7c0.2,0,0.4-0.1,0.5-0.2l-14-14.4c-0.6-0.7-0.6-1.7,0-2.4c0.7-0.7,1.7-0.6,2.4,0     l14.9,15.3c0.4,0.4,0.6,1.1,0.4,1.7C83.4,41.7,81.7,43,79.8,43L79.8,43z" id="path58"/></g><g id="g64"><path d="M61,32.3c-0.5,0-0.9-0.2-1.2-0.5L38.3,9.7C37.9,9.2,37.8,8.5,38,8c0.6-1.9,2.3-3.3,4.2-3.3h37.7c1.9,0,3.6,1.3,4.2,3.3     c0.2,0.6,0,1.2-0.4,1.7L62.2,31.8C61.9,32.1,61.5,32.3,61,32.3L61,32.3z M41.7,8.2L61,28.2L80.3,8.2c-0.2-0.1-0.3-0.2-0.5-0.2     H42.2C42,8.1,41.8,8.1,41.7,8.2L41.7,8.2z" id="path62"/></g></g></g><g id="TF" display="none"><g display="inline" id="g91"><g id="g71"><path d="M77.8,49c-0.7,0-1.3-0.1-1.8-0.4c-4.6-2.1-10.5-5-15.8-8.1c-1.5-0.9-4.2-4.1-3.5-6.9l1.4-6.2c-0.2-0.2-0.7-0.6-1.6-0.8     C52.7,26,49,25.7,45,25.7c-3.9,0-7.7,0.3-11.3,0.9c-0.9,0.1-1.5,0.6-1.7,0.8l1.4,6.2c0.6,2.9-2.2,6.1-3.4,6.9     c-6.3,4-10.4,6.1-16.2,8.3c-0.5,0.2-1,0.3-1.5,0.3c-2.3,0-5.7-1.8-6.8-4.3c-2.2-5-3.3-10.2-3.3-15.6c0-1.5,0.1-3,0.3-4.6l0.1-1.1     l0.8-0.8c9.9-10.4,25-16.4,41.5-16.4c16.7,0,31.9,6,41.8,16.4l0.8,0.8l0.1,1.1c0.2,1.7,0.3,3.2,0.3,4.6c0,5.4-1.1,10.7-3.3,15.6     C83.4,47.2,80.1,49,77.8,49L77.8,49z M11.5,41.8c0.1,0.1,0.4,0.3,0.6,0.4c4.9-1.9,8.6-3.8,14.2-7.4c0,0,0.2-0.3,0.3-0.5l-1.3-5.7     c-0.4-1.6,0-3.4,1-4.9c1.3-2,3.6-3.3,6.2-3.7c3.9-0.6,8-0.9,12.3-1c4.3,0,8.5,0.4,12.4,1c2.6,0.4,4.9,1.8,6.2,3.7     c1,1.5,1.4,3.3,1,5l-1.3,5.7c0.1,0.2,0.3,0.5,0.4,0.6c4.5,2.6,9.9,5.2,14.2,7.3c0.2-0.1,0.5-0.3,0.6-0.4     c1.6-3.8,2.6-8.2,2.6-12.7c0-0.8,0-1.7-0.1-2.7c-8.6-8.5-21.9-13.5-35.8-13.5h-0.4c-13.9,0-27.2,5-35.7,13.5     c-0.1,0.9-0.1,1.8-0.1,2.7C8.9,33.5,9.8,37.8,11.5,41.8L11.5,41.8z" id="path69"/></g><path d="M31.3,46.9c-2.8,0-5.1,2.3-5.1,5.1c0,2.8,2.3,5.1,5.1,5.1c2.8,0,5.1-2.3,5.1-5.1C36.4,49.2,34.2,46.9,31.3,46.9L31.3,46.9    z" id="path73"/><path d="M44.7,46.9c-2.8,0-5.1,2.3-5.1,5.1c0,2.8,2.3,5.1,5.1,5.1c2.8,0,5.1-2.3,5.1-5.1C49.8,49.2,47.5,46.9,44.7,46.9L44.7,46.9    z" id="path75"/><path d="M58.1,46.9c-2.8,0-5.1,2.3-5.1,5.1c0,2.8,2.3,5.1,5.1,5.1c2.8,0,5.1-2.3,5.1-5.1C63.2,49.2,60.9,46.9,58.1,46.9L58.1,46.9    z" id="path77"/><path d="M31.3,60.2c-2.8,0-5.1,2.3-5.1,5.1c0,2.8,2.3,5.1,5.1,5.1c2.8,0,5.1-2.3,5.1-5.1C36.4,62.5,34.2,60.2,31.3,60.2L31.3,60.2    z" id="path79"/><path d="M44.7,60.2c-2.8,0-5.1,2.3-5.1,5.1c0,2.8,2.3,5.1,5.1,5.1c2.8,0,5.1-2.3,5.1-5.1C49.8,62.5,47.5,60.2,44.7,60.2L44.7,60.2    z" id="path81"/><path d="M58.1,60.2c-2.8,0-5.1,2.3-5.1,5.1c0,2.8,2.3,5.1,5.1,5.1c2.8,0,5.1-2.3,5.1-5.1C63.2,62.5,60.9,60.2,58.1,60.2L58.1,60.2    z" id="path83"/><path d="M31.3,73.6c-2.8,0-5.1,2.3-5.1,5.1c0,2.8,2.3,5.1,5.1,5.1c2.8,0,5.1-2.3,5.1-5.1C36.4,75.9,34.2,73.6,31.3,73.6L31.3,73.6    z" id="path85"/><path d="M44.7,73.6c-2.8,0-5.1,2.3-5.1,5.1c0,2.8,2.3,5.1,5.1,5.1c2.8,0,5.1-2.3,5.1-5.1C49.8,75.9,47.5,73.6,44.7,73.6L44.7,73.6    z" id="path87"/><path d="M58.1,73.6c-2.8,0-5.1,2.3-5.1,5.1c0,2.8,2.3,5.1,5.1,5.1c2.8,0,5.1-2.3,5.1-5.1C63.2,75.9,60.9,73.6,58.1,73.6L58.1,73.6    z" id="path89"/></g></g><g id="CALL" display="none"><g display="inline" id="g110"><g id="g96"><path d="M16.5,71.3c-0.8,0-1.7,0-2.5-0.1c-1.5-0.1-2.8-1.2-3.1-2.7c-0.3-1.5,0.5-3,1.8-3.7c2.4-1.2,4.4-2.7,5.9-4.6     c-10-5.1-16.3-14-16.3-23.8c0-15.4,15.5-28,34.6-28c19.1,0,34.6,12.6,34.6,28s-15.5,28-34.6,28c-0.4,0-0.8,0-1.2,0     C30.8,68.9,24.1,71.3,16.5,71.3L16.5,71.3z M36.9,15.3C21.6,15.3,9,24.8,9,36.5c0,8,6.2,15.5,15.7,19.1c0.9,0.3,1.6,1,1.9,1.9     c0.4,0.9,0.3,1.9-0.1,2.7l-0.2,0.3c-0.2,0.4-0.4,0.8-0.6,1.2c-0.3,0.5-0.6,1-1,1.5c2.8-1,5.3-2.5,7.2-4.5c0.7-0.7,1.7-1,2.6-1     c0.7,0,1.5,0.1,2.3,0.1c15.4,0,27.9-9.5,27.9-21.3S52.3,15.3,36.9,15.3L36.9,15.3z" id="path94"/></g><g id="g100"><path d="M75.7,81.5c-4.4,0-8.5-1.2-11.9-3.4c-0.2,0-0.4,0.1-0.6,0.1c-13.1,2.4-25.9-3.6-30.4-14.1c-0.7-1.7,0.1-3.7,1.8-4.4     c1.7-0.7,3.7,0.1,4.4,1.8c3.3,7.7,13,12,23.1,10.1c0.6-0.1,1.1-0.2,1.7-0.4c1-0.3,2.1,0,2.9,0.6c1.3,1,2.7,1.8,4.3,2.2     c0,0,0,0,0,0c-0.3-0.3-0.5-0.6-0.7-0.9c-0.5-0.8-0.8-1.8-0.6-2.7c0.2-0.9,0.7-1.8,1.4-2.3C78,63.8,81.8,56.7,80.8,50     c-0.9-5.5-4.7-10-10.6-12.4c-1.7-0.7-2.5-2.7-1.8-4.4c0.7-1.7,2.7-2.6,4.4-1.8c8,3.2,13.5,9.8,14.7,17.6     c1.3,8.2-2.4,16.7-9.6,22.6c1.3,1.2,2.9,2,4.7,2.6c1.4,0.5,2.4,1.8,2.3,3.3c0,1.5-1.1,2.8-2.5,3.2C80.1,81.2,77.9,81.5,75.7,81.5     L75.7,81.5z" id="path98"/></g><g id="g108"><path d="M23.6,32.6c-2.4,0-4.4,2-4.4,4.4s2,4.4,4.4,4.4c2.4,0,4.4-2,4.4-4.4S26,32.6,23.6,32.6L23.6,32.6z" id="path102"/><path d="M37,32.6c-2.4,0-4.4,2-4.4,4.4s2,4.4,4.4,4.4c2.4,0,4.4-2,4.4-4.4S39.4,32.6,37,32.6L37,32.6z" id="path104"/><path d="M50.5,32.6c-2.4,0-4.4,2-4.4,4.4s2,4.4,4.4,4.4c2.4,0,4.4-2,4.4-4.4S52.9,32.6,50.5,32.6L50.5,32.6z" id="path106"/></g></g></g><g id="DAS" display="none"><g display="inline" id="g125"><g id="g115"><path d="M83.4,84.5H65.4c-1.9,0-3.4-1.5-3.4-3.4V8.9c0-1.9,1.5-3.4,3.4-3.4h17.9c1.9,0,3.4,1.5,3.4,3.4v72.3     C86.7,83,85.2,84.5,83.4,84.5L83.4,84.5z M68.8,77.8H80V12.2H68.8V77.8L68.8,77.8z" id="path113"/></g><g id="g119"><path d="M54,84.5H36c-1.9,0-3.4-1.5-3.4-3.4V50.3c0-1.9,1.5-3.4,3.4-3.4H54c1.9,0,3.4,1.5,3.4,3.4v30.8     C57.3,83,55.8,84.5,54,84.5L54,84.5z M39.4,77.8h11.2V53.7H39.4V77.8L39.4,77.8z" id="path117"/></g><g id="g123"><path d="M24.6,84.5H6.6c-1.9,0-3.4-1.5-3.4-3.4V35.2c0-1.9,1.5-3.4,3.4-3.4h17.9c1.9,0,3.4,1.5,3.4,3.4v45.9     C27.9,83,26.4,84.5,24.6,84.5L24.6,84.5z M10,77.8h11.2V38.6H10V77.8L10,77.8z" id="path121"/></g></g></g><g id="C2C" display="none"><g display="inline" id="g136"><g id="g130"><path d="M45,82.5c-4.7,0-9.3-0.9-13.7-2.7c-11.4-5-16.3-22-16.4-30.1V26.4C14.7,16.5,23.2,8,33.7,7.5l22.5,0     c10.7,0.5,19.1,9,18.9,19v23.3c-0.1,8.1-5,25.2-16.3,30.1C54.3,81.6,49.7,82.5,45,82.5L45,82.5z M56,14.2l-22.2,0     c-6.6,0.3-12.3,5.9-12.2,12.1v23.4c0.1,7.6,4.9,20.7,12.3,23.9c6.9,2.8,15.1,2.9,22.2,0c7.3-3.2,12.1-16.3,12.2-23.9V26.4     C68.5,20.1,62.8,14.5,56,14.2L56,14.2z" id="path128"/></g><g id="g134"><path d="M44.5,31.7c-1.9,0-3.4-1.5-3.4-3.4V10.8c0-1.9,1.5-3.4,3.4-3.4c1.9,0,3.4,1.5,3.4,3.4v17.5     C47.9,30.2,46.4,31.7,44.5,31.7L44.5,31.7z" id="path132"/></g></g></g><g id="REP" display="none"><g display="inline" id="g153"><g id="g147"><g id="g141"><path d="M52.3,81.2c-0.9,0-1.7-0.8-1.7-1.7V59.3c0-0.9,0.8-1.7,1.7-1.7h20.2c0.9,0,1.7,0.8,1.7,1.7c0,0.9-0.8,1.7-1.7,1.7H54      v18.5C54,80.4,53.2,81.2,52.3,81.2L52.3,81.2z" id="path139"/></g><g id="g145"><path d="M52.3,82.9H17.6c-1.9,0-3.4-1.5-3.4-3.4v-69c0-1.9,1.5-3.4,3.4-3.4h54.9c1.9,0,3.4,1.5,3.4,3.4v48.8      c0,0.9-0.4,1.7-1,2.4L54.7,81.9C54,82.5,53.2,82.9,52.3,82.9L52.3,82.9z M20.9,76.1h30l18.2-18.2V13.9H20.9V76.1L20.9,76.1z" id="path143"/></g></g><g id="g151"><path d="M42.7,47.2c-0.8,0-1.5-0.3-2.1-0.8l-8.4-6.9c-1.4-1.2-1.7-3.3-0.5-4.7c1.2-1.4,3.3-1.7,4.7-0.5l5.8,4.7l13.3-16.4     c1.2-1.4,3.3-1.7,4.7-0.5c1.4,1.2,1.7,3.3,0.5,4.7L45.3,46c-0.6,0.7-1.4,1.1-2.3,1.2C42.9,47.2,42.8,47.2,42.7,47.2L42.7,47.2z" id="path149"/></g></g></g><g id="DMKT" display="none"><g display="inline" id="g184"><g id="g158"><path d="M30.2,67.1c-6.8,0-12.4-5.6-12.4-12.4c0-6.8,5.6-12.4,12.4-12.4c6.8,0,12.4,5.6,12.4,12.4C42.6,61.5,37,67.1,30.2,67.1     L30.2,67.1z M30.2,49c-3.1,0-5.7,2.6-5.7,5.7s2.5,5.7,5.7,5.7c3.1,0,5.7-2.6,5.7-5.7S33.3,49,30.2,49L30.2,49z" id="path156"/></g><g id="g162"><path d="M63.7,29.5c-7.2,0-13-5.8-13-13c0-7.2,5.8-13,13-13s13,5.8,13,13C76.7,23.7,70.9,29.5,63.7,29.5L63.7,29.5z M63.7,10.2     c-3.5,0-6.3,2.8-6.3,6.3c0,3.5,2.8,6.3,6.3,6.3c3.5,0,6.3-2.8,6.3-6.3C70,13,67.2,10.2,63.7,10.2L63.7,10.2z" id="path160"/></g><g id="g166"><path d="M45.8,43.2L45.8,43.2c-1.9,0-3.4-1.5-3.4-3.4V29.7l-10.1,0c-1.9,0-3.4-1.5-3.4-3.4c0-1.9,1.5-3.4,3.4-3.4l13.5,0     c0.9,0,1.7,0.4,2.4,1c0.6,0.6,1,1.5,1,2.4v13.5C49.1,41.7,47.6,43.2,45.8,43.2L45.8,43.2z" id="path164"/></g><g id="g170"><path d="M32.3,48.7c-0.3,0-0.7-0.1-1-0.2c-1.8-0.6-2.7-2.5-2.2-4.2c2-6.3,5.4-11.8,10.1-16.5c1-1,2.1-2,3.2-2.9     c1.4-1.2,3.6-1,4.7,0.5c1.2,1.4,1,3.6-0.5,4.7c-0.9,0.7-1.8,1.5-2.7,2.4c-3.9,3.9-6.7,8.5-8.4,13.8C35,47.8,33.7,48.7,32.3,48.7     L32.3,48.7z" id="path168"/></g><g id="g174"><path d="M45,86.6c-10.1,0-20.3-3.9-28-11.6C1.5,59.5,1.5,34.4,17,19C27.2,8.8,42.1,5,56,9c1.8,0.5,2.8,2.4,2.3,4.2     c-0.5,1.8-2.4,2.8-4.2,2.3c-11.5-3.3-23.9-0.2-32.4,8.3c-12.8,12.8-12.8,33.7,0,46.5C34.5,83,55.4,83,68.2,70.2     c12.6-12.6,12.9-32.6,0.7-45.6c-1.3-1.4-1.2-3.5,0.2-4.8c1.4-1.3,3.5-1.2,4.8,0.2C88.5,35.7,88.1,59.8,73,75     C65.2,82.7,55.1,86.6,45,86.6L45,86.6z" id="path172"/></g><g id="g178"><path d="M56.3,62.1c-0.9,0-1.7-0.3-2.4-1c-1.3-1.3-1.3-3.4,0-4.8l10.4-10.4c1.3-1.3,3.4-1.3,4.8,0c1.3,1.3,1.3,3.4,0,4.8     L58.7,61.1C58.1,61.7,57.2,62.1,56.3,62.1L56.3,62.1z" id="path176"/></g><g id="g182"><path d="M66.7,62.1c-0.9,0-1.7-0.3-2.4-1L54,50.7c-1.3-1.3-1.3-3.4,0-4.8c1.3-1.3,3.4-1.3,4.8,0l10.4,10.4c1.3,1.3,1.3,3.4,0,4.8     C68.5,61.7,67.6,62.1,66.7,62.1L66.7,62.1z" id="path180"/></g></g></g><g id="MAIL" display="none"><g display="inline" id="g203"><g id="g189"><path d="M75.5,87.9H14.5c-4.4,0-7.9-3.6-7.9-7.9V35.5c0-1,0.4-1.9,1.2-2.6L43,2.9c1.3-1.1,3.1-1.1,4.4,0l34.9,30     c0.7,0.6,1.2,1.6,1.2,2.6V80C83.5,84.3,79.9,87.9,75.5,87.9L75.5,87.9z M13.3,37V80c0,0.7,0.5,1.2,1.2,1.2h61.1     c0.7,0,1.2-0.5,1.2-1.2V37L45.1,9.9L13.3,37L13.3,37z" id="path187"/></g><g id="g193"><path d="M75.5,86.2H14.5c-2.6,0-4.9-1.6-5.8-4c-0.2-0.7-0.1-1.4,0.5-1.9l34.8-31c0.6-0.6,1.6-0.6,2.2,0l34.8,31     c0.5,0.5,0.7,1.2,0.5,1.9C80.4,84.6,78.1,86.2,75.5,86.2L75.5,86.2z M12.4,81.9c0.5,0.6,1.3,0.9,2.1,0.9h61.1     c0.8,0,1.6-0.3,2.1-0.9L45,52.8L12.4,81.9L12.4,81.9z" id="path191"/></g><g id="g197"><path d="M55.7,61.6c-0.5,0-0.9-0.2-1.3-0.6c-0.6-0.7-0.6-1.8,0.1-2.4l24.1-21.5c0.7-0.6,1.8-0.6,2.4,0.1c0.6,0.7,0.6,1.8-0.1,2.4     L56.8,61.1C56.5,61.4,56.1,61.6,55.7,61.6L55.7,61.6z" id="path195"/></g><g id="g201"><path d="M34.5,61.7c-0.4,0-0.8-0.1-1.1-0.4L9.1,39.7C8.4,39,8.3,38,9,37.3c0.6-0.7,1.7-0.8,2.4-0.1l24.3,21.6     c0.7,0.6,0.8,1.7,0.1,2.4C35.4,61.5,34.9,61.7,34.5,61.7L34.5,61.7z" id="path199"/></g></g></g></g></svg>